<svg width="18" height="18" viewBox="0 0 18 18" fill="none" xmlns="http://www.w3.org/2000/svg">
<path d="M1.5 11.2446C1.77614 11.2446 2 11.5023 2 11.8202V14.6978C2 15.3336 2.44772 15.8489 3 15.8489H15C15.5523 15.8489 16 15.3336 16 14.6978V11.8202C16 11.5023 16.2239 11.2446 16.5 11.2446C16.7761 11.2446 17 11.5023 17 11.8202V14.6978C17 15.9693 16.1046 17 15 17H3C1.89543 17 1 15.9693 1 14.6978V11.8202C1 11.5023 1.22386 11.2446 1.5 11.2446Z" fill="#C4C4C4"/>
<path d="M8.64645 13.4933C8.84171 13.718 9.15829 13.718 9.35355 13.4933L12.3536 10.04C12.5488 9.81528 12.5488 9.45087 12.3536 9.22611C12.1583 9.00135 11.8417 9.00135 11.6464 9.22611L9.5 11.6968V1.57554C9.5 1.25768 9.27614 1 9 1C8.72386 1 8.5 1.25768 8.5 1.57554V11.6968L6.35355 9.22611C6.15829 9.00135 5.84171 9.00135 5.64645 9.22611C5.45118 9.45087 5.45118 9.81528 5.64645 10.04L8.64645 13.4933Z" fill="#C4C4C4"/>
<path d="M9.35355 13.4933L8.9761 13.1654L8.9761 13.1654L9.35355 13.4933ZM8.64645 13.4933L9.0239 13.1654L9.0239 13.1654L8.64645 13.4933ZM12.3536 10.04L11.9761 9.71213L11.9761 9.71213L12.3536 10.04ZM12.3536 9.22611L11.9761 9.55403L11.9761 9.55403L12.3536 9.22611ZM11.6464 9.22611L12.0239 9.55403L12.0239 9.55403L11.6464 9.22611ZM9.5 11.6968H9C9 11.9055 9.12954 12.0922 9.32497 12.1652C9.5204 12.2382 9.74063 12.1822 9.87745 12.0248L9.5 11.6968ZM8.5 11.6968L8.12255 12.0248C8.25937 12.1822 8.4796 12.2382 8.67503 12.1652C8.87046 12.0922 9 11.9055 9 11.6968H8.5ZM6.35355 9.22611L5.9761 9.55403L5.9761 9.55403L6.35355 9.22611ZM5.64645 9.22611L6.0239 9.55403L6.0239 9.55403L5.64645 9.22611ZM5.64645 10.04L6.0239 9.71213L6.0239 9.71213L5.64645 10.04ZM2.5 11.8202C2.5 11.2945 2.11602 10.7446 1.5 10.7446V11.7446C1.48996 11.7446 1.48115 11.742 1.47575 11.7394C1.47105 11.7371 1.47197 11.7363 1.4761 11.7411C1.485 11.7514 1.5 11.7778 1.5 11.8202H2.5ZM2.5 14.6978V11.8202H1.5V14.6978H2.5ZM3 15.3489C2.78759 15.3489 2.5 15.1258 2.5 14.6978H1.5C1.5 15.5413 2.10784 16.3489 3 16.3489V15.3489ZM15 15.3489H3V16.3489H15V15.3489ZM15.5 14.6978C15.5 15.1258 15.2124 15.3489 15 15.3489V16.3489C15.8922 16.3489 16.5 15.5413 16.5 14.6978H15.5ZM15.5 11.8202V14.6978H16.5V11.8202H15.5ZM16.5 10.7446C15.884 10.7446 15.5 11.2945 15.5 11.8202H16.5C16.5 11.7778 16.515 11.7514 16.5239 11.7411C16.528 11.7363 16.5289 11.7371 16.5242 11.7394C16.5189 11.742 16.51 11.7446 16.5 11.7446V10.7446ZM17.5 11.8202C17.5 11.2945 17.116 10.7446 16.5 10.7446V11.7446C16.49 11.7446 16.4811 11.742 16.4758 11.7394C16.4711 11.7371 16.472 11.7363 16.4761 11.7411C16.485 11.7514 16.5 11.7778 16.5 11.8202H17.5ZM17.5 14.6978V11.8202H16.5V14.6978H17.5ZM15 17.5C16.4444 17.5 17.5 16.1771 17.5 14.6978H16.5C16.5 15.7615 15.7647 16.5 15 16.5V17.5ZM3 17.5H15V16.5H3V17.5ZM0.5 14.6978C0.5 16.1771 1.55555 17.5 3 17.5V16.5C2.23531 16.5 1.5 15.7615 1.5 14.6978H0.5ZM0.5 11.8202V14.6978H1.5V11.8202H0.5ZM1.5 10.7446C0.883978 10.7446 0.5 11.2945 0.5 11.8202H1.5C1.5 11.7778 1.515 11.7514 1.5239 11.7411C1.52803 11.7363 1.52895 11.7371 1.52425 11.7394C1.51885 11.742 1.51004 11.7446 1.5 11.7446V10.7446ZM8.9761 13.1654C8.97153 13.1706 8.97107 13.1692 8.97667 13.1666C8.98213 13.1641 8.99028 13.1618 9 13.1618C9.00972 13.1618 9.01788 13.1641 9.02334 13.1666C9.02893 13.1692 9.02847 13.1706 9.0239 13.1654L8.26899 13.8212C8.66359 14.2754 9.33641 14.2754 9.73101 13.8212L8.9761 13.1654ZM11.9761 9.71213L8.9761 13.1654L9.73101 13.8212L12.731 10.368L11.9761 9.71213ZM11.9761 9.55403C11.9861 9.56553 12 9.59248 12 9.63308C12 9.67368 11.9861 9.70063 11.9761 9.71213L12.731 10.368C13.0897 9.95512 13.0897 9.31104 12.731 8.8982L11.9761 9.55403ZM12.0239 9.55403C12.0285 9.54877 12.0289 9.55014 12.0233 9.55276C12.0179 9.5553 12.0097 9.55754 12 9.55754C11.9903 9.55754 11.9821 9.5553 11.9767 9.55276C11.9711 9.55014 11.9715 9.54877 11.9761 9.55403L12.731 8.8982C12.3364 8.44399 11.6636 8.44399 11.269 8.8982L12.0239 9.55403ZM9.87745 12.0248L12.0239 9.55403L11.269 8.8982L9.12255 11.3689L9.87745 12.0248ZM9 1.57554V11.6968H10V1.57554H9ZM9 1.5C8.98996 1.5 8.98115 1.49741 8.97575 1.49478C8.97105 1.49249 8.97197 1.49174 8.9761 1.49649C8.985 1.50674 9 1.53316 9 1.57554H10C10 1.04991 9.61602 0.5 9 0.5V1.5ZM9 1.57554C9 1.53316 9.015 1.50674 9.0239 1.49649C9.02803 1.49174 9.02895 1.49249 9.02425 1.49478C9.01885 1.49741 9.01004 1.5 9 1.5V0.5C8.38398 0.5 8 1.04991 8 1.57554H9ZM9 11.6968V1.57554H8V11.6968H9ZM5.9761 9.55403L8.12255 12.0248L8.87745 11.3689L6.73101 8.8982L5.9761 9.55403ZM6.0239 9.55403C6.02847 9.54877 6.02893 9.55014 6.02333 9.55276C6.01787 9.5553 6.00972 9.55754 6 9.55754C5.99028 9.55754 5.98213 9.5553 5.97667 9.55276C5.97107 9.55014 5.97153 9.54877 5.9761 9.55403L6.73101 8.8982C6.33641 8.44399 5.66359 8.44399 5.26899 8.8982L6.0239 9.55403ZM6.0239 9.71213C6.01391 9.70063 6 9.67368 6 9.63308C6 9.59248 6.01391 9.56553 6.0239 9.55403L5.26899 8.8982C4.91034 9.31104 4.91034 9.95512 5.26899 10.368L6.0239 9.71213ZM9.0239 13.1654L6.0239 9.71213L5.26899 10.368L8.26899 13.8212L9.0239 13.1654Z" fill="#C4C4C4"/>
</svg>
