<svg width="591" height="591" viewBox="0 0 591 591" fill="none" xmlns="http://www.w3.org/2000/svg">
<circle cx="295.5" cy="295.5" r="282.037" stroke="#E7E7E7" stroke-width="26.9268"/>
<g filter="url(#filter0_bd_505_26341)">
<rect x="146" y="131" width="302.493" height="79.0433" rx="28.743" fill="white"/>
</g>
<path d="M238.803 151.291L235.363 162.898H233.209L230.771 154.114L228.182 162.898L226.045 162.914L222.755 151.291H224.775L227.18 160.743L229.785 151.291H231.923L234.344 160.693L236.766 151.291H238.803ZM248.807 158.071C248.807 158.417 248.785 158.728 248.74 159.007H241.709C241.765 159.741 242.038 160.332 242.528 160.777C243.018 161.222 243.619 161.445 244.331 161.445C245.356 161.445 246.079 161.016 246.502 160.159H248.556C248.278 161.005 247.771 161.701 247.037 162.246C246.313 162.781 245.411 163.048 244.331 163.048C243.452 163.048 242.661 162.853 241.96 162.464C241.27 162.063 240.724 161.506 240.323 160.794C239.934 160.07 239.739 159.235 239.739 158.289C239.739 157.342 239.928 156.513 240.307 155.8C240.696 155.077 241.236 154.52 241.927 154.13C242.628 153.741 243.429 153.546 244.331 153.546C245.2 153.546 245.973 153.735 246.653 154.114C247.332 154.492 247.86 155.027 248.239 155.717C248.618 156.396 248.807 157.181 248.807 158.071ZM246.82 157.47C246.808 156.769 246.558 156.207 246.068 155.784C245.578 155.361 244.971 155.149 244.248 155.149C243.591 155.149 243.029 155.361 242.561 155.784C242.094 156.196 241.815 156.758 241.726 157.47H246.82ZM252.584 150.54V162.898H250.68V150.54H252.584ZM256.987 150.54V162.898H255.084V150.54H256.987ZM272.809 165.002L270.772 162.798C270.271 162.942 269.72 163.015 269.119 163.015C268.039 163.015 267.042 162.764 266.129 162.263C265.228 161.751 264.51 161.044 263.975 160.142C263.452 159.229 263.19 158.205 263.19 157.069C263.19 155.934 263.452 154.915 263.975 154.013C264.51 153.112 265.228 152.41 266.129 151.909C267.042 151.397 268.039 151.141 269.119 151.141C270.21 151.141 271.206 151.397 272.108 151.909C273.021 152.41 273.739 153.112 274.262 154.013C274.785 154.915 275.047 155.934 275.047 157.069C275.047 158.138 274.813 159.107 274.346 159.975C273.889 160.833 273.255 161.523 272.442 162.046L275.231 165.002H272.809ZM265.144 157.069C265.144 157.927 265.311 158.684 265.645 159.341C265.99 159.986 266.463 160.487 267.065 160.844C267.666 161.189 268.35 161.361 269.119 161.361C269.887 161.361 270.572 161.189 271.173 160.844C271.774 160.487 272.242 159.986 272.576 159.341C272.921 158.684 273.093 157.927 273.093 157.069C273.093 156.212 272.921 155.461 272.576 154.815C272.242 154.169 271.774 153.674 271.173 153.329C270.572 152.984 269.887 152.811 269.119 152.811C268.35 152.811 267.666 152.984 267.065 153.329C266.463 153.674 265.99 154.169 265.645 154.815C265.311 155.461 265.144 156.212 265.144 157.069ZM285.303 153.696V162.898H283.399V161.812C283.098 162.191 282.703 162.491 282.213 162.714C281.734 162.926 281.222 163.031 280.677 163.031C279.953 163.031 279.302 162.881 278.723 162.58C278.155 162.28 277.704 161.834 277.37 161.244C277.047 160.654 276.886 159.942 276.886 159.107V153.696H278.773V158.823C278.773 159.647 278.979 160.281 279.391 160.727C279.803 161.161 280.365 161.378 281.078 161.378C281.79 161.378 282.352 161.161 282.764 160.727C283.187 160.281 283.399 159.647 283.399 158.823V153.696H285.303ZM287.18 158.255C287.18 157.331 287.369 156.513 287.748 155.8C288.137 155.088 288.661 154.537 289.317 154.147C289.985 153.746 290.72 153.546 291.522 153.546C292.245 153.546 292.874 153.691 293.409 153.98C293.954 154.258 294.389 154.609 294.711 155.032V153.696H296.632V162.898H294.711V161.528C294.389 161.963 293.949 162.324 293.392 162.614C292.835 162.903 292.201 163.048 291.488 163.048C290.698 163.048 289.974 162.848 289.317 162.447C288.661 162.035 288.137 161.467 287.748 160.743C287.369 160.009 287.18 159.179 287.18 158.255ZM294.711 158.289C294.711 157.654 294.578 157.103 294.311 156.635C294.055 156.168 293.715 155.811 293.292 155.567C292.869 155.322 292.412 155.199 291.923 155.199C291.433 155.199 290.976 155.322 290.553 155.567C290.13 155.8 289.785 156.151 289.518 156.619C289.262 157.075 289.134 157.621 289.134 158.255C289.134 158.89 289.262 159.446 289.518 159.925C289.785 160.404 290.13 160.771 290.553 161.027C290.987 161.272 291.444 161.395 291.923 161.395C292.412 161.395 292.869 161.272 293.292 161.027C293.715 160.782 294.055 160.426 294.311 159.959C294.578 159.48 294.711 158.923 294.711 158.289ZM301.036 150.54V162.898H299.132V150.54H301.036ZM304.504 152.477C304.159 152.477 303.87 152.36 303.636 152.126C303.402 151.893 303.285 151.603 303.285 151.258C303.285 150.913 303.402 150.623 303.636 150.39C303.87 150.156 304.159 150.039 304.504 150.039C304.838 150.039 305.122 150.156 305.356 150.39C305.59 150.623 305.707 150.913 305.707 151.258C305.707 151.603 305.59 151.893 305.356 152.126C305.122 152.36 304.838 152.477 304.504 152.477ZM305.439 153.696V162.898H303.536V153.696H305.439ZM311.797 155.249H310.093V162.898H308.173V155.249H307.087V153.696H308.173V153.045C308.173 151.987 308.451 151.219 309.008 150.74C309.576 150.25 310.461 150.005 311.663 150.005V151.592C311.084 151.592 310.678 151.703 310.444 151.926C310.21 152.137 310.093 152.51 310.093 153.045V153.696H311.797V155.249ZM314.452 152.477C314.107 152.477 313.818 152.36 313.584 152.126C313.35 151.893 313.233 151.603 313.233 151.258C313.233 150.913 313.35 150.623 313.584 150.39C313.818 150.156 314.107 150.039 314.452 150.039C314.786 150.039 315.07 150.156 315.304 150.39C315.538 150.623 315.655 150.913 315.655 151.258C315.655 151.603 315.538 151.893 315.304 152.126C315.07 152.36 314.786 152.477 314.452 152.477ZM315.388 153.696V162.898H313.484V153.696H315.388ZM326.32 158.071C326.32 158.417 326.298 158.728 326.254 159.007H319.223C319.279 159.741 319.551 160.332 320.041 160.777C320.531 161.222 321.132 161.445 321.845 161.445C322.869 161.445 323.593 161.016 324.016 160.159H326.07C325.792 161.005 325.285 161.701 324.55 162.246C323.827 162.781 322.925 163.048 321.845 163.048C320.965 163.048 320.175 162.853 319.474 162.464C318.783 162.063 318.238 161.506 317.837 160.794C317.447 160.07 317.252 159.235 317.252 158.289C317.252 157.342 317.442 156.513 317.82 155.8C318.21 155.077 318.75 154.52 319.44 154.13C320.142 153.741 320.943 153.546 321.845 153.546C322.713 153.546 323.487 153.735 324.166 154.114C324.845 154.492 325.374 155.027 325.753 155.717C326.131 156.396 326.32 157.181 326.32 158.071ZM324.333 157.47C324.322 156.769 324.072 156.207 323.582 155.784C323.092 155.361 322.485 155.149 321.761 155.149C321.105 155.149 320.542 155.361 320.075 155.784C319.607 156.196 319.329 156.758 319.24 157.47H324.333ZM327.559 158.255C327.559 157.331 327.749 156.513 328.127 155.8C328.517 155.088 329.04 154.537 329.697 154.147C330.365 153.746 331.105 153.546 331.918 153.546C332.519 153.546 333.109 153.679 333.688 153.947C334.278 154.203 334.746 154.548 335.091 154.982V150.54H337.011V162.898H335.091V161.512C334.779 161.957 334.345 162.324 333.788 162.614C333.243 162.903 332.614 163.048 331.901 163.048C331.1 163.048 330.365 162.848 329.697 162.447C329.04 162.035 328.517 161.467 328.127 160.743C327.749 160.009 327.559 159.179 327.559 158.255ZM335.091 158.289C335.091 157.654 334.957 157.103 334.69 156.635C334.434 156.168 334.094 155.811 333.671 155.567C333.248 155.322 332.792 155.199 332.302 155.199C331.812 155.199 331.356 155.322 330.933 155.567C330.51 155.8 330.164 156.151 329.897 156.619C329.641 157.075 329.513 157.621 329.513 158.255C329.513 158.89 329.641 159.446 329.897 159.925C330.164 160.404 330.51 160.771 330.933 161.027C331.367 161.272 331.823 161.395 332.302 161.395C332.792 161.395 333.248 161.272 333.671 161.027C334.094 160.782 334.434 160.426 334.69 159.959C334.957 159.48 335.091 158.923 335.091 158.289ZM343.215 158.255C343.215 157.331 343.405 156.513 343.783 155.8C344.173 155.088 344.696 154.537 345.353 154.147C346.021 153.746 346.761 153.546 347.574 153.546C348.175 153.546 348.765 153.679 349.344 153.947C349.934 154.203 350.402 154.548 350.747 154.982V150.54H352.667V162.898H350.747V161.512C350.435 161.957 350.001 162.324 349.444 162.614C348.899 162.903 348.27 163.048 347.557 163.048C346.756 163.048 346.021 162.848 345.353 162.447C344.696 162.035 344.173 161.467 343.783 160.743C343.405 160.009 343.215 159.179 343.215 158.255ZM350.747 158.289C350.747 157.654 350.613 157.103 350.346 156.635C350.09 156.168 349.751 155.811 349.327 155.567C348.904 155.322 348.448 155.199 347.958 155.199C347.468 155.199 347.012 155.322 346.589 155.567C346.166 155.8 345.821 156.151 345.553 156.619C345.297 157.075 345.169 157.621 345.169 158.255C345.169 158.89 345.297 159.446 345.553 159.925C345.821 160.404 346.166 160.771 346.589 161.027C347.023 161.272 347.479 161.395 347.958 161.395C348.448 161.395 348.904 161.272 349.327 161.027C349.751 160.782 350.09 160.426 350.346 159.959C350.613 159.48 350.747 158.923 350.747 158.289ZM359.159 163.048C358.291 163.048 357.506 162.853 356.805 162.464C356.103 162.063 355.552 161.506 355.151 160.794C354.75 160.07 354.55 159.235 354.55 158.289C354.55 157.353 354.756 156.524 355.168 155.8C355.58 155.077 356.142 154.52 356.855 154.13C357.567 153.741 358.363 153.546 359.243 153.546C360.122 153.546 360.918 153.741 361.631 154.13C362.343 154.52 362.905 155.077 363.317 155.8C363.729 156.524 363.935 157.353 363.935 158.289C363.935 159.224 363.724 160.053 363.301 160.777C362.878 161.5 362.299 162.063 361.564 162.464C360.84 162.853 360.039 163.048 359.159 163.048ZM359.159 161.395C359.649 161.395 360.105 161.278 360.529 161.044C360.963 160.81 361.313 160.46 361.581 159.992C361.848 159.524 361.981 158.957 361.981 158.289C361.981 157.621 361.853 157.058 361.597 156.602C361.341 156.134 361.002 155.784 360.579 155.55C360.156 155.316 359.699 155.199 359.209 155.199C358.719 155.199 358.263 155.316 357.84 155.55C357.428 155.784 357.1 156.134 356.855 156.602C356.61 157.058 356.487 157.621 356.487 158.289C356.487 159.279 356.738 160.048 357.239 160.593C357.751 161.128 358.391 161.395 359.159 161.395ZM365.183 158.289C365.183 157.342 365.372 156.513 365.75 155.8C366.14 155.077 366.675 154.52 367.354 154.13C368.033 153.741 368.812 153.546 369.692 153.546C370.805 153.546 371.723 153.813 372.447 154.347C373.182 154.871 373.677 155.622 373.933 156.602H371.879C371.712 156.145 371.445 155.789 371.078 155.533C370.71 155.277 370.248 155.149 369.692 155.149C368.912 155.149 368.289 155.427 367.821 155.984C367.365 156.53 367.137 157.298 367.137 158.289C367.137 159.279 367.365 160.053 367.821 160.61C368.289 161.166 368.912 161.445 369.692 161.445C370.794 161.445 371.523 160.961 371.879 159.992H373.933C373.666 160.927 373.165 161.673 372.43 162.23C371.696 162.775 370.783 163.048 369.692 163.048C368.812 163.048 368.033 162.853 367.354 162.464C366.675 162.063 366.14 161.506 365.75 160.794C365.372 160.07 365.183 159.235 365.183 158.289ZM378.052 155.249V160.343C378.052 160.688 378.13 160.938 378.285 161.094C378.452 161.239 378.731 161.311 379.12 161.311H380.289V162.898H378.786C377.929 162.898 377.272 162.697 376.816 162.297C376.359 161.896 376.131 161.244 376.131 160.343V155.249H375.046V153.696H376.131V151.408H378.052V153.696H380.289V155.249H378.052ZM386.035 163.048C385.167 163.048 384.382 162.853 383.681 162.464C382.979 162.063 382.428 161.506 382.027 160.794C381.627 160.07 381.426 159.235 381.426 158.289C381.426 157.353 381.632 156.524 382.044 155.8C382.456 155.077 383.018 154.52 383.731 154.13C384.443 153.741 385.239 153.546 386.119 153.546C386.998 153.546 387.794 153.741 388.507 154.13C389.219 154.52 389.782 155.077 390.194 155.8C390.606 156.524 390.811 157.353 390.811 158.289C390.811 159.224 390.6 160.053 390.177 160.777C389.754 161.5 389.175 162.063 388.44 162.464C387.716 162.853 386.915 163.048 386.035 163.048ZM386.035 161.395C386.525 161.395 386.982 161.278 387.405 161.044C387.839 160.81 388.19 160.46 388.457 159.992C388.724 159.524 388.858 158.957 388.858 158.289C388.858 157.621 388.73 157.058 388.474 156.602C388.217 156.134 387.878 155.784 387.455 155.55C387.032 155.316 386.575 155.199 386.085 155.199C385.596 155.199 385.139 155.316 384.716 155.55C384.304 155.784 383.976 156.134 383.731 156.602C383.486 157.058 383.363 157.621 383.363 158.289C383.363 159.279 383.614 160.048 384.115 160.593C384.627 161.128 385.267 161.395 386.035 161.395ZM394.597 155.032C394.876 154.565 395.243 154.203 395.699 153.947C396.167 153.679 396.718 153.546 397.353 153.546V155.516H396.868C396.122 155.516 395.555 155.706 395.165 156.084C394.786 156.463 394.597 157.12 394.597 158.055V162.898H392.693V153.696H394.597V155.032ZM402.443 163.048C401.719 163.048 401.068 162.92 400.489 162.664C399.921 162.397 399.47 162.04 399.136 161.595C398.802 161.139 398.624 160.632 398.602 160.075H400.572C400.606 160.465 400.789 160.794 401.123 161.061C401.468 161.317 401.897 161.445 402.409 161.445C402.944 161.445 403.356 161.345 403.645 161.144C403.946 160.933 404.096 160.666 404.096 160.343C404.096 159.998 403.929 159.741 403.595 159.574C403.272 159.407 402.754 159.224 402.042 159.023C401.352 158.834 400.789 158.65 400.355 158.472C399.921 158.294 399.542 158.021 399.22 157.654C398.908 157.287 398.752 156.802 398.752 156.201C398.752 155.711 398.897 155.266 399.186 154.865C399.476 154.453 399.888 154.13 400.422 153.897C400.967 153.663 401.591 153.546 402.292 153.546C403.339 153.546 404.179 153.813 404.814 154.347C405.46 154.871 405.805 155.589 405.849 156.502H403.946C403.912 156.09 403.745 155.761 403.445 155.516C403.144 155.271 402.738 155.149 402.225 155.149C401.725 155.149 401.34 155.244 401.073 155.433C400.806 155.622 400.672 155.873 400.672 156.184C400.672 156.429 400.761 156.635 400.94 156.802C401.118 156.969 401.335 157.103 401.591 157.203C401.847 157.292 402.225 157.409 402.726 157.554C403.394 157.732 403.94 157.916 404.363 158.105C404.797 158.283 405.17 158.55 405.482 158.906C405.794 159.263 405.955 159.736 405.966 160.326C405.966 160.849 405.822 161.317 405.532 161.729C405.243 162.141 404.831 162.464 404.296 162.697C403.773 162.931 403.155 163.048 402.443 163.048Z" fill="#404040"/>
<path d="M229.601 172.98V174.251H227.072V182.482H225.514V174.251H222.971V172.98H229.601ZM232.738 176.042C232.966 175.66 233.267 175.363 233.64 175.154C234.023 174.935 234.474 174.826 234.994 174.826V176.439H234.597C233.987 176.439 233.522 176.594 233.203 176.904C232.893 177.213 232.738 177.751 232.738 178.517V182.482H231.18V174.949H232.738V176.042ZM243.331 178.53C243.331 178.813 243.312 179.068 243.276 179.296H237.52C237.566 179.898 237.789 180.381 238.19 180.745C238.591 181.11 239.083 181.292 239.667 181.292C240.505 181.292 241.098 180.941 241.444 180.239H243.125C242.898 180.932 242.483 181.502 241.881 181.948C241.289 182.386 240.551 182.605 239.667 182.605C238.947 182.605 238.3 182.445 237.725 182.126C237.16 181.798 236.714 181.342 236.386 180.759C236.067 180.166 235.907 179.483 235.907 178.708C235.907 177.934 236.062 177.255 236.372 176.671C236.691 176.079 237.133 175.623 237.698 175.304C238.272 174.985 238.928 174.826 239.667 174.826C240.378 174.826 241.011 174.981 241.567 175.29C242.123 175.6 242.556 176.038 242.866 176.603C243.176 177.159 243.331 177.801 243.331 178.53ZM241.704 178.038C241.695 177.464 241.489 177.004 241.088 176.658C240.687 176.311 240.191 176.138 239.598 176.138C239.061 176.138 238.6 176.311 238.217 176.658C237.835 176.995 237.607 177.455 237.534 178.038H241.704ZM244.345 178.681C244.345 177.924 244.5 177.255 244.81 176.671C245.129 176.088 245.557 175.637 246.095 175.318C246.642 174.99 247.243 174.826 247.899 174.826C248.492 174.826 249.007 174.944 249.444 175.181C249.891 175.409 250.246 175.696 250.511 176.042V174.949H252.083V182.482H250.511V181.36C250.246 181.716 249.886 182.012 249.431 182.249C248.975 182.486 248.455 182.605 247.872 182.605C247.225 182.605 246.632 182.44 246.095 182.112C245.557 181.775 245.129 181.31 244.81 180.718C244.5 180.116 244.345 179.437 244.345 178.681ZM250.511 178.708C250.511 178.189 250.401 177.738 250.182 177.355C249.973 176.972 249.695 176.68 249.348 176.48C249.002 176.279 248.628 176.179 248.227 176.179C247.826 176.179 247.453 176.279 247.106 176.48C246.76 176.671 246.478 176.958 246.259 177.341C246.049 177.715 245.944 178.161 245.944 178.681C245.944 179.2 246.049 179.656 246.259 180.048C246.478 180.44 246.76 180.741 247.106 180.95C247.462 181.151 247.836 181.251 248.227 181.251C248.628 181.251 249.002 181.151 249.348 180.95C249.695 180.75 249.973 180.458 250.182 180.075C250.401 179.683 250.511 179.228 250.511 178.708ZM255.948 176.22V180.39C255.948 180.672 256.012 180.877 256.14 181.005C256.276 181.123 256.504 181.183 256.823 181.183H257.78V182.482H256.55C255.848 182.482 255.31 182.317 254.936 181.989C254.563 181.661 254.376 181.128 254.376 180.39V176.22H253.487V174.949H254.376V173.076H255.948V174.949H257.78V176.22H255.948ZM272.885 174.949L270.547 182.482H268.906L267.389 176.917L265.871 182.482H264.231L261.879 174.949H263.465L265.037 181.005L266.637 174.949H268.264L269.795 180.978L271.353 174.949H272.885ZM274.842 173.951C274.56 173.951 274.323 173.855 274.131 173.664C273.94 173.472 273.844 173.235 273.844 172.953C273.844 172.67 273.94 172.433 274.131 172.242C274.323 172.05 274.56 171.955 274.842 171.955C275.116 171.955 275.348 172.05 275.54 172.242C275.731 172.433 275.827 172.67 275.827 172.953C275.827 173.235 275.731 173.472 275.54 173.664C275.348 173.855 275.116 173.951 274.842 173.951ZM275.608 174.949V182.482H274.049V174.949H275.608ZM279.472 176.22V180.39C279.472 180.672 279.536 180.877 279.664 181.005C279.8 181.123 280.028 181.183 280.347 181.183H281.304V182.482H280.074C279.372 182.482 278.834 182.317 278.461 181.989C278.087 181.661 277.9 181.128 277.9 180.39V176.22H277.012V174.949H277.9V173.076H279.472V174.949H281.304V176.22H279.472ZM286.637 174.826C287.211 174.826 287.722 174.949 288.168 175.195C288.624 175.441 288.979 175.805 289.235 176.288C289.499 176.771 289.631 177.355 289.631 178.038V182.482H288.086V178.271C288.086 177.596 287.918 177.081 287.58 176.726C287.243 176.361 286.783 176.179 286.2 176.179C285.616 176.179 285.151 176.361 284.805 176.726C284.468 177.081 284.299 177.596 284.299 178.271V182.482H282.741V172.365H284.299V175.824C284.564 175.505 284.896 175.259 285.297 175.085C285.707 174.912 286.154 174.826 286.637 174.826ZM294.651 178.708C294.651 177.934 294.806 177.255 295.116 176.671C295.435 176.079 295.872 175.623 296.428 175.304C296.984 174.985 297.622 174.826 298.342 174.826C299.254 174.826 300.006 175.044 300.598 175.482C301.199 175.91 301.605 176.525 301.815 177.327H300.133C299.996 176.954 299.778 176.662 299.477 176.452C299.176 176.243 298.798 176.138 298.342 176.138C297.704 176.138 297.194 176.366 296.811 176.822C296.437 177.268 296.25 177.897 296.25 178.708C296.25 179.519 296.437 180.153 296.811 180.609C297.194 181.064 297.704 181.292 298.342 181.292C299.244 181.292 299.841 180.896 300.133 180.103H301.815C301.596 180.868 301.186 181.479 300.584 181.935C299.983 182.381 299.235 182.605 298.342 182.605C297.622 182.605 296.984 182.445 296.428 182.126C295.872 181.798 295.435 181.342 295.116 180.759C294.806 180.166 294.651 179.483 294.651 178.708ZM302.848 178.681C302.848 177.924 303.003 177.255 303.313 176.671C303.632 176.088 304.061 175.637 304.598 175.318C305.145 174.99 305.747 174.826 306.403 174.826C306.995 174.826 307.51 174.944 307.948 175.181C308.394 175.409 308.75 175.696 309.014 176.042V174.949H310.586V182.482H309.014V181.36C308.75 181.716 308.39 182.012 307.934 182.249C307.478 182.486 306.959 182.605 306.376 182.605C305.728 182.605 305.136 182.44 304.598 182.112C304.061 181.775 303.632 181.31 303.313 180.718C303.003 180.116 302.848 179.437 302.848 178.681ZM309.014 178.708C309.014 178.189 308.905 177.738 308.686 177.355C308.476 176.972 308.198 176.68 307.852 176.48C307.506 176.279 307.132 176.179 306.731 176.179C306.33 176.179 305.956 176.279 305.61 176.48C305.264 176.671 304.981 176.958 304.762 177.341C304.553 177.715 304.448 178.161 304.448 178.681C304.448 179.2 304.553 179.656 304.762 180.048C304.981 180.44 305.264 180.741 305.61 180.95C305.965 181.151 306.339 181.251 306.731 181.251C307.132 181.251 307.506 181.151 307.852 180.95C308.198 180.75 308.476 180.458 308.686 180.075C308.905 179.683 309.014 179.228 309.014 178.708ZM314.192 176.042C314.42 175.66 314.721 175.363 315.094 175.154C315.477 174.935 315.928 174.826 316.448 174.826V176.439H316.051C315.441 176.439 314.976 176.594 314.657 176.904C314.347 177.213 314.192 177.751 314.192 178.517V182.482H312.633V174.949H314.192V176.042ZM324.784 178.53C324.784 178.813 324.766 179.068 324.73 179.296H318.974C319.02 179.898 319.243 180.381 319.644 180.745C320.045 181.11 320.537 181.292 321.12 181.292C321.959 181.292 322.551 180.941 322.898 180.239H324.579C324.351 180.932 323.937 181.502 323.335 181.948C322.743 182.386 322.004 182.605 321.12 182.605C320.4 182.605 319.753 182.445 319.179 182.126C318.614 181.798 318.167 181.342 317.839 180.759C317.52 180.166 317.361 179.483 317.361 178.708C317.361 177.934 317.516 177.255 317.826 176.671C318.145 176.079 318.587 175.623 319.152 175.304C319.726 174.985 320.382 174.826 321.12 174.826C321.831 174.826 322.465 174.981 323.021 175.29C323.577 175.6 324.01 176.038 324.319 176.603C324.629 177.159 324.784 177.801 324.784 178.53ZM323.157 178.038C323.148 177.464 322.943 177.004 322.542 176.658C322.141 176.311 321.644 176.138 321.052 176.138C320.514 176.138 320.054 176.311 319.671 176.658C319.288 176.995 319.061 177.455 318.988 178.038H323.157Z" fill="#9D9D9D"/>
<path d="M189.672 176.65C195.082 176.65 199.468 172.264 199.468 166.854C199.468 161.444 195.082 157.058 189.672 157.058C184.262 157.058 179.876 161.444 179.876 166.854C179.876 172.264 184.262 176.65 189.672 176.65Z" stroke="#4200FF" stroke-width="3.47443" stroke-linecap="round" stroke-linejoin="round"/>
<path d="M205.065 182.248L196.669 173.851" stroke="#4200FF" stroke-width="3.47443" stroke-linecap="round" stroke-linejoin="round"/>
<g filter="url(#filter1_bd_505_26341)">
<rect x="190" y="250" width="209.105" height="79.0433" rx="28.743" fill="url(#paint0_linear_505_26341)" shape-rendering="crispEdges"/>
<rect x="190.719" y="250.719" width="207.668" height="77.6061" rx="28.0244" stroke="url(#paint1_linear_505_26341)" stroke-width="1.43715" style="mix-blend-mode:overlay" shape-rendering="crispEdges"/>
</g>
<path d="M222.532 289.983C222.532 289.005 222.757 288.128 223.208 287.352C223.668 286.576 224.286 285.972 225.062 285.541C225.848 285.1 226.706 284.88 227.635 284.88C228.699 284.88 229.643 285.143 230.467 285.67C231.301 286.188 231.905 286.926 232.279 287.884H230.309C230.05 287.357 229.691 286.964 229.231 286.705C228.771 286.447 228.239 286.317 227.635 286.317C226.974 286.317 226.385 286.466 225.867 286.763C225.35 287.06 224.942 287.486 224.645 288.042C224.358 288.598 224.214 289.245 224.214 289.983C224.214 290.721 224.358 291.368 224.645 291.924C224.942 292.479 225.35 292.911 225.867 293.217C226.385 293.515 226.974 293.663 227.635 293.663C228.239 293.663 228.771 293.534 229.231 293.275C229.691 293.016 230.05 292.623 230.309 292.096H232.279C231.905 293.055 231.301 293.792 230.467 294.31C229.643 294.827 228.699 295.086 227.635 295.086C226.696 295.086 225.838 294.871 225.062 294.439C224.286 293.999 223.668 293.39 223.208 292.614C222.757 291.837 222.532 290.96 222.532 289.983ZM237.633 295.129C236.885 295.129 236.209 294.962 235.606 294.626C235.002 294.281 234.527 293.802 234.182 293.189C233.837 292.566 233.665 291.847 233.665 291.032C233.665 290.227 233.842 289.513 234.197 288.89C234.551 288.267 235.035 287.788 235.649 287.453C236.262 287.117 236.947 286.95 237.704 286.95C238.462 286.95 239.147 287.117 239.76 287.453C240.373 287.788 240.857 288.267 241.212 288.89C241.567 289.513 241.744 290.227 241.744 291.032C241.744 291.837 241.562 292.551 241.198 293.174C240.833 293.797 240.335 294.281 239.703 294.626C239.08 294.962 238.39 295.129 237.633 295.129ZM237.633 293.706C238.054 293.706 238.447 293.606 238.811 293.404C239.185 293.203 239.487 292.901 239.717 292.499C239.947 292.096 240.062 291.607 240.062 291.032C240.062 290.457 239.952 289.973 239.731 289.58C239.511 289.178 239.219 288.876 238.854 288.675C238.49 288.473 238.097 288.373 237.676 288.373C237.254 288.373 236.861 288.473 236.497 288.675C236.142 288.876 235.86 289.178 235.649 289.58C235.438 289.973 235.332 290.457 235.332 291.032C235.332 291.885 235.548 292.547 235.979 293.016C236.42 293.476 236.971 293.706 237.633 293.706ZM247.36 286.95C247.983 286.95 248.539 287.079 249.028 287.338C249.526 287.597 249.914 287.98 250.192 288.488C250.47 288.996 250.609 289.609 250.609 290.328V295H248.985V290.572C248.985 289.863 248.808 289.322 248.453 288.948C248.098 288.565 247.614 288.373 247.001 288.373C246.388 288.373 245.899 288.565 245.535 288.948C245.18 289.322 245.003 289.863 245.003 290.572V295H243.364V287.079H245.003V287.985C245.271 287.659 245.611 287.405 246.023 287.223C246.445 287.041 246.891 286.95 247.36 286.95ZM254.612 288.416V292.801C254.612 293.098 254.679 293.313 254.813 293.447C254.957 293.572 255.196 293.634 255.532 293.634H256.538V295H255.244C254.506 295 253.941 294.827 253.548 294.482C253.155 294.137 252.958 293.577 252.958 292.801V288.416H252.024V287.079H252.958V285.11H254.612V287.079H256.538V288.416H254.612ZM257.502 291.004C257.502 290.208 257.665 289.504 257.991 288.89C258.326 288.277 258.777 287.803 259.342 287.467C259.917 287.122 260.55 286.95 261.24 286.95C261.863 286.95 262.404 287.074 262.864 287.323C263.334 287.563 263.708 287.865 263.986 288.229V287.079H265.639V295H263.986V293.821C263.708 294.195 263.329 294.506 262.85 294.756C262.371 295.005 261.824 295.129 261.211 295.129C260.531 295.129 259.908 294.957 259.342 294.612C258.777 294.257 258.326 293.768 257.991 293.146C257.665 292.513 257.502 291.799 257.502 291.004ZM263.986 291.032C263.986 290.486 263.871 290.012 263.641 289.609C263.42 289.207 263.128 288.9 262.764 288.689C262.399 288.478 262.006 288.373 261.585 288.373C261.163 288.373 260.77 288.478 260.406 288.689C260.042 288.89 259.745 289.192 259.515 289.595C259.294 289.988 259.184 290.457 259.184 291.004C259.184 291.55 259.294 292.029 259.515 292.441C259.745 292.853 260.042 293.17 260.406 293.39C260.78 293.601 261.173 293.706 261.585 293.706C262.006 293.706 262.399 293.601 262.764 293.39C263.128 293.179 263.42 292.872 263.641 292.47C263.871 292.058 263.986 291.579 263.986 291.032ZM267.245 291.032C267.245 290.218 267.408 289.504 267.734 288.89C268.069 288.267 268.529 287.788 269.114 287.453C269.698 287.117 270.369 286.95 271.126 286.95C272.085 286.95 272.875 287.18 273.498 287.64C274.131 288.09 274.557 288.737 274.778 289.58H273.01C272.866 289.187 272.636 288.881 272.32 288.66C272.003 288.44 271.606 288.33 271.126 288.33C270.455 288.33 269.919 288.569 269.516 289.049C269.123 289.518 268.927 290.179 268.927 291.032C268.927 291.885 269.123 292.551 269.516 293.031C269.919 293.51 270.455 293.749 271.126 293.749C272.075 293.749 272.703 293.332 273.01 292.499H274.778C274.548 293.304 274.116 293.946 273.484 294.425C272.851 294.895 272.066 295.129 271.126 295.129C270.369 295.129 269.698 294.962 269.114 294.626C268.529 294.281 268.069 293.802 267.734 293.189C267.408 292.566 267.245 291.847 267.245 291.032ZM278.323 288.416V292.801C278.323 293.098 278.39 293.313 278.524 293.447C278.668 293.572 278.907 293.634 279.243 293.634H280.249V295H278.955C278.217 295 277.652 294.827 277.259 294.482C276.866 294.137 276.67 293.577 276.67 292.801V288.416H275.735V287.079H276.67V285.11H278.323V287.079H280.249V288.416H278.323ZM289.49 286.95C290.113 286.95 290.669 287.079 291.158 287.338C291.656 287.597 292.044 287.98 292.322 288.488C292.6 288.996 292.739 289.609 292.739 290.328V295H291.115V290.572C291.115 289.863 290.937 289.322 290.583 288.948C290.228 288.565 289.744 288.373 289.131 288.373C288.518 288.373 288.029 288.565 287.665 288.948C287.31 289.322 287.133 289.863 287.133 290.572V295H285.494V287.079H287.133V287.985C287.401 287.659 287.741 287.405 288.153 287.223C288.575 287.041 289.021 286.95 289.49 286.95ZM298.265 295.129C297.518 295.129 296.842 294.962 296.238 294.626C295.635 294.281 295.16 293.802 294.815 293.189C294.47 292.566 294.298 291.847 294.298 291.032C294.298 290.227 294.475 289.513 294.83 288.89C295.184 288.267 295.668 287.788 296.282 287.453C296.895 287.117 297.58 286.95 298.337 286.95C299.094 286.95 299.78 287.117 300.393 287.453C301.006 287.788 301.49 288.267 301.845 288.89C302.2 289.513 302.377 290.227 302.377 291.032C302.377 291.837 302.195 292.551 301.831 293.174C301.466 293.797 300.968 294.281 300.335 294.626C299.713 294.962 299.023 295.129 298.265 295.129ZM298.265 293.706C298.687 293.706 299.08 293.606 299.444 293.404C299.818 293.203 300.12 292.901 300.35 292.499C300.58 292.096 300.695 291.607 300.695 291.032C300.695 290.457 300.585 289.973 300.364 289.58C300.144 289.178 299.851 288.876 299.487 288.675C299.123 288.473 298.73 288.373 298.309 288.373C297.887 288.373 297.494 288.473 297.13 288.675C296.775 288.876 296.492 289.178 296.282 289.58C296.071 289.973 295.965 290.457 295.965 291.032C295.965 291.885 296.181 292.547 296.612 293.016C297.053 293.476 297.604 293.706 298.265 293.706Z" fill="black"/>
<path d="M350.786 278.85H356.196L358.901 285.613L355.52 287.642C356.969 290.579 359.346 292.956 362.283 294.405L364.312 291.023L371.075 293.728V299.139C371.075 299.856 370.79 300.544 370.283 301.052C369.775 301.559 369.087 301.844 368.37 301.844C363.094 301.523 358.117 299.283 354.379 295.545C350.642 291.807 348.401 286.831 348.081 281.555C348.081 280.837 348.366 280.149 348.873 279.642C349.38 279.135 350.068 278.85 350.786 278.85" stroke="#4B4B4B" stroke-width="1.43715" stroke-linecap="round" stroke-linejoin="round"/>
<g filter="url(#filter2_bd_505_26341)">
<path d="M144 397.743C144 381.869 156.869 369 172.743 369H417.75C433.624 369 446.493 381.869 446.493 397.743V429.724C446.493 445.598 433.624 458.467 417.75 458.467H172.743C156.869 458.467 144 445.598 144 429.724V397.743Z" fill="white"/>
</g>
<path d="M233.114 398.41C233.737 398.522 234.266 398.85 234.7 399.396C235.135 399.941 235.352 400.559 235.352 401.249C235.352 401.839 235.196 402.374 234.884 402.852C234.584 403.32 234.144 403.693 233.565 403.971C232.986 404.239 232.312 404.372 231.544 404.372H226.902V392.766H231.327C232.118 392.766 232.797 392.899 233.364 393.167C233.932 393.434 234.361 393.796 234.65 394.252C234.94 394.697 235.085 395.198 235.085 395.755C235.085 396.423 234.906 396.98 234.55 397.425C234.194 397.87 233.715 398.199 233.114 398.41ZM228.805 397.642H231.16C231.784 397.642 232.268 397.503 232.613 397.225C232.969 396.935 233.147 396.523 233.147 395.989C233.147 395.466 232.969 395.059 232.613 394.77C232.268 394.469 231.784 394.319 231.16 394.319H228.805V397.642ZM231.377 402.819C232.023 402.819 232.529 402.663 232.897 402.351C233.264 402.04 233.448 401.606 233.448 401.049C233.448 400.481 233.253 400.03 232.863 399.696C232.474 399.362 231.956 399.195 231.31 399.195H228.805V402.819H231.377ZM241.412 404.522C240.543 404.522 239.759 404.328 239.057 403.938C238.356 403.537 237.805 402.98 237.404 402.268C237.003 401.544 236.803 400.709 236.803 399.763C236.803 398.828 237.009 397.998 237.421 397.275C237.832 396.551 238.395 395.994 239.107 395.605C239.82 395.215 240.616 395.02 241.495 395.02C242.375 395.02 243.171 395.215 243.883 395.605C244.596 395.994 245.158 396.551 245.57 397.275C245.982 397.998 246.188 398.828 246.188 399.763C246.188 400.698 245.976 401.528 245.553 402.251C245.13 402.975 244.551 403.537 243.817 403.938C243.093 404.328 242.291 404.522 241.412 404.522ZM241.412 402.869C241.902 402.869 242.358 402.752 242.781 402.518C243.215 402.285 243.566 401.934 243.833 401.466C244.1 400.999 244.234 400.431 244.234 399.763C244.234 399.095 244.106 398.533 243.85 398.076C243.594 397.609 243.254 397.258 242.831 397.024C242.408 396.79 241.952 396.674 241.462 396.674C240.972 396.674 240.516 396.79 240.093 397.024C239.681 397.258 239.352 397.609 239.107 398.076C238.862 398.533 238.74 399.095 238.74 399.763C238.74 400.754 238.99 401.522 239.491 402.068C240.003 402.602 240.644 402.869 241.412 402.869ZM252.061 404.522C251.193 404.522 250.408 404.328 249.706 403.938C249.005 403.537 248.454 402.98 248.053 402.268C247.652 401.544 247.452 400.709 247.452 399.763C247.452 398.828 247.658 397.998 248.07 397.275C248.482 396.551 249.044 395.994 249.757 395.605C250.469 395.215 251.265 395.02 252.145 395.02C253.024 395.02 253.82 395.215 254.533 395.605C255.245 395.994 255.807 396.551 256.219 397.275C256.631 397.998 256.837 398.828 256.837 399.763C256.837 400.698 256.626 401.528 256.203 402.251C255.78 402.975 255.201 403.537 254.466 403.938C253.742 404.328 252.941 404.522 252.061 404.522ZM252.061 402.869C252.551 402.869 253.007 402.752 253.431 402.518C253.865 402.285 254.215 401.934 254.483 401.466C254.75 400.999 254.883 400.431 254.883 399.763C254.883 399.095 254.755 398.533 254.499 398.076C254.243 397.609 253.904 397.258 253.481 397.024C253.058 396.79 252.601 396.674 252.111 396.674C251.621 396.674 251.165 396.79 250.742 397.024C250.33 397.258 250.002 397.609 249.757 398.076C249.512 398.533 249.389 399.095 249.389 399.763C249.389 400.754 249.64 401.522 250.141 402.068C250.653 402.602 251.293 402.869 252.061 402.869ZM262.36 399.78L266.602 404.372H264.03L260.623 400.414V404.372H258.719V392.014H260.623V399.195L263.963 395.171H266.602L262.36 399.78ZM271.67 399.73C271.67 398.806 271.859 397.987 272.237 397.275C272.627 396.562 273.15 396.011 273.807 395.621C274.475 395.221 275.21 395.02 276.011 395.02C276.735 395.02 277.364 395.165 277.899 395.454C278.444 395.733 278.878 396.083 279.201 396.507V395.171H281.122V404.372H279.201V403.003C278.878 403.437 278.438 403.799 277.882 404.088C277.325 404.378 276.691 404.522 275.978 404.522C275.188 404.522 274.464 404.322 273.807 403.921C273.15 403.509 272.627 402.942 272.237 402.218C271.859 401.483 271.67 400.654 271.67 399.73ZM279.201 399.763C279.201 399.128 279.068 398.577 278.8 398.11C278.544 397.642 278.205 397.286 277.782 397.041C277.359 396.796 276.902 396.674 276.412 396.674C275.922 396.674 275.466 396.796 275.043 397.041C274.62 397.275 274.275 397.625 274.007 398.093C273.751 398.549 273.623 399.095 273.623 399.73C273.623 400.364 273.751 400.921 274.007 401.4C274.275 401.878 274.62 402.246 275.043 402.502C275.477 402.747 275.934 402.869 276.412 402.869C276.902 402.869 277.359 402.747 277.782 402.502C278.205 402.257 278.544 401.901 278.8 401.433C279.068 400.954 279.201 400.398 279.201 399.763ZM288.265 395.02C288.988 395.02 289.634 395.171 290.202 395.471C290.781 395.772 291.232 396.217 291.554 396.807C291.877 397.397 292.039 398.11 292.039 398.945V404.372H290.152V399.229C290.152 398.405 289.946 397.776 289.534 397.342C289.122 396.896 288.56 396.674 287.847 396.674C287.135 396.674 286.567 396.896 286.144 397.342C285.732 397.776 285.526 398.405 285.526 399.229V404.372H283.622V395.171H285.526V396.223C285.838 395.844 286.233 395.549 286.712 395.338C287.201 395.126 287.719 395.02 288.265 395.02ZM298.171 399.73C298.171 398.806 298.36 397.987 298.738 397.275C299.128 396.562 299.651 396.011 300.308 395.621C300.976 395.221 301.711 395.02 302.513 395.02C303.236 395.02 303.865 395.165 304.4 395.454C304.945 395.733 305.379 396.083 305.702 396.507V395.171H307.623V404.372H305.702V403.003C305.379 403.437 304.94 403.799 304.383 404.088C303.826 404.378 303.192 404.522 302.479 404.522C301.689 404.522 300.965 404.322 300.308 403.921C299.651 403.509 299.128 402.942 298.738 402.218C298.36 401.483 298.171 400.654 298.171 399.73ZM305.702 399.763C305.702 399.128 305.569 398.577 305.301 398.11C305.045 397.642 304.706 397.286 304.283 397.041C303.86 396.796 303.403 396.674 302.913 396.674C302.423 396.674 301.967 396.796 301.544 397.041C301.121 397.275 300.776 397.625 300.509 398.093C300.252 398.549 300.124 399.095 300.124 399.73C300.124 400.364 300.252 400.921 300.509 401.4C300.776 401.878 301.121 402.246 301.544 402.502C301.978 402.747 302.435 402.869 302.913 402.869C303.403 402.869 303.86 402.747 304.283 402.502C304.706 402.257 305.045 401.901 305.301 401.433C305.569 400.954 305.702 400.398 305.702 399.763ZM312.027 396.523C312.35 396.1 312.79 395.744 313.346 395.454C313.903 395.165 314.532 395.02 315.233 395.02C316.035 395.02 316.764 395.221 317.421 395.621C318.089 396.011 318.612 396.562 318.991 397.275C319.369 397.987 319.559 398.806 319.559 399.73C319.559 400.654 319.369 401.483 318.991 402.218C318.612 402.942 318.089 403.509 317.421 403.921C316.764 404.322 316.035 404.522 315.233 404.522C314.532 404.522 313.908 404.383 313.363 404.105C312.817 403.815 312.372 403.459 312.027 403.036V408.747H310.123V395.171H312.027V396.523ZM317.621 399.73C317.621 399.095 317.488 398.549 317.221 398.093C316.965 397.625 316.619 397.275 316.185 397.041C315.762 396.796 315.306 396.674 314.816 396.674C314.337 396.674 313.881 396.796 313.446 397.041C313.023 397.286 312.678 397.642 312.411 398.11C312.155 398.577 312.027 399.128 312.027 399.763C312.027 400.398 312.155 400.954 312.411 401.433C312.678 401.901 313.023 402.257 313.446 402.502C313.881 402.747 314.337 402.869 314.816 402.869C315.306 402.869 315.762 402.747 316.185 402.502C316.619 402.246 316.965 401.878 317.221 401.4C317.488 400.921 317.621 400.364 317.621 399.73ZM323.345 396.523C323.668 396.1 324.108 395.744 324.664 395.454C325.221 395.165 325.85 395.02 326.551 395.02C327.353 395.02 328.082 395.221 328.739 395.621C329.407 396.011 329.93 396.562 330.309 397.275C330.687 397.987 330.877 398.806 330.877 399.73C330.877 400.654 330.687 401.483 330.309 402.218C329.93 402.942 329.407 403.509 328.739 403.921C328.082 404.322 327.353 404.522 326.551 404.522C325.85 404.522 325.226 404.383 324.681 404.105C324.135 403.815 323.69 403.459 323.345 403.036V408.747H321.441V395.171H323.345V396.523ZM328.939 399.73C328.939 399.095 328.806 398.549 328.539 398.093C328.283 397.625 327.937 397.275 327.503 397.041C327.08 396.796 326.624 396.674 326.134 396.674C325.655 396.674 325.199 396.796 324.764 397.041C324.341 397.286 323.996 397.642 323.729 398.11C323.473 398.577 323.345 399.128 323.345 399.763C323.345 400.398 323.473 400.954 323.729 401.433C323.996 401.901 324.341 402.257 324.764 402.502C325.199 402.747 325.655 402.869 326.134 402.869C326.624 402.869 327.08 402.747 327.503 402.502C327.937 402.246 328.283 401.878 328.539 401.4C328.806 400.921 328.939 400.364 328.939 399.73ZM336.75 404.522C335.882 404.522 335.097 404.328 334.396 403.938C333.694 403.537 333.143 402.98 332.742 402.268C332.342 401.544 332.141 400.709 332.141 399.763C332.141 398.828 332.347 397.998 332.759 397.275C333.171 396.551 333.733 395.994 334.446 395.605C335.158 395.215 335.954 395.02 336.834 395.02C337.713 395.02 338.509 395.215 339.222 395.605C339.935 395.994 340.497 396.551 340.909 397.275C341.321 397.998 341.527 398.828 341.527 399.763C341.527 400.698 341.315 401.528 340.892 402.251C340.469 402.975 339.89 403.537 339.155 403.938C338.432 404.328 337.63 404.522 336.75 404.522ZM336.75 402.869C337.24 402.869 337.697 402.752 338.12 402.518C338.554 402.285 338.905 401.934 339.172 401.466C339.439 400.999 339.573 400.431 339.573 399.763C339.573 399.095 339.445 398.533 339.189 398.076C338.933 397.609 338.593 397.258 338.17 397.024C337.747 396.79 337.29 396.674 336.801 396.674C336.311 396.674 335.854 396.79 335.431 397.024C335.019 397.258 334.691 397.609 334.446 398.076C334.201 398.533 334.078 399.095 334.078 399.763C334.078 400.754 334.329 401.522 334.83 402.068C335.342 402.602 335.982 402.869 336.75 402.869ZM344.377 393.951C344.032 393.951 343.743 393.835 343.509 393.601C343.275 393.367 343.158 393.078 343.158 392.732C343.158 392.387 343.275 392.098 343.509 391.864C343.743 391.63 344.032 391.513 344.377 391.513C344.711 391.513 344.995 391.63 345.229 391.864C345.463 392.098 345.58 392.387 345.58 392.732C345.58 393.078 345.463 393.367 345.229 393.601C344.995 393.835 344.711 393.951 344.377 393.951ZM345.312 395.171V404.372H343.409V395.171H345.312ZM352.454 395.02C353.178 395.02 353.824 395.171 354.391 395.471C354.97 395.772 355.421 396.217 355.744 396.807C356.067 397.397 356.228 398.11 356.228 398.945V404.372H354.341V399.229C354.341 398.405 354.135 397.776 353.724 397.342C353.312 396.896 352.749 396.674 352.037 396.674C351.324 396.674 350.757 396.896 350.333 397.342C349.922 397.776 349.716 398.405 349.716 399.229V404.372H347.812V395.171H349.716V396.223C350.027 395.844 350.423 395.549 350.901 395.338C351.391 395.126 351.909 395.02 352.454 395.02ZM360.878 396.724V401.817C360.878 402.162 360.956 402.413 361.112 402.569C361.279 402.713 361.557 402.786 361.947 402.786H363.116V404.372H361.613C360.755 404.372 360.099 404.172 359.642 403.771C359.186 403.37 358.957 402.719 358.957 401.817V396.724H357.872V395.171H358.957V392.883H360.878V395.171H363.116V396.724H360.878ZM376.009 395.02C376.733 395.02 377.378 395.171 377.946 395.471C378.525 395.772 378.976 396.217 379.299 396.807C379.633 397.397 379.8 398.11 379.8 398.945V404.372H377.913V399.229C377.913 398.405 377.707 397.776 377.295 397.342C376.883 396.896 376.321 396.674 375.608 396.674C374.896 396.674 374.328 396.896 373.905 397.342C373.493 397.776 373.287 398.405 373.287 399.229V404.372H371.4V399.229C371.4 398.405 371.194 397.776 370.782 397.342C370.37 396.896 369.808 396.674 369.095 396.674C368.383 396.674 367.815 396.896 367.392 397.342C366.98 397.776 366.774 398.405 366.774 399.229V404.372H364.87V395.171H366.774V396.223C367.086 395.844 367.481 395.549 367.96 395.338C368.439 395.126 368.951 395.02 369.496 395.02C370.231 395.02 370.888 395.176 371.467 395.488C372.046 395.8 372.491 396.25 372.803 396.841C373.081 396.284 373.515 395.844 374.105 395.521C374.695 395.187 375.33 395.02 376.009 395.02ZM390.656 399.546C390.656 399.891 390.634 400.203 390.589 400.481H383.558C383.614 401.216 383.887 401.806 384.377 402.251C384.867 402.697 385.468 402.919 386.18 402.919C387.205 402.919 387.928 402.491 388.351 401.633H390.405C390.127 402.479 389.62 403.175 388.886 403.721C388.162 404.255 387.26 404.522 386.18 404.522C385.301 404.522 384.51 404.328 383.809 403.938C383.119 403.537 382.573 402.98 382.172 402.268C381.783 401.544 381.588 400.709 381.588 399.763C381.588 398.817 381.777 397.987 382.156 397.275C382.545 396.551 383.085 395.994 383.775 395.605C384.477 395.215 385.278 395.02 386.18 395.02C387.049 395.02 387.822 395.21 388.502 395.588C389.181 395.967 389.709 396.501 390.088 397.191C390.467 397.87 390.656 398.655 390.656 399.546ZM388.669 398.945C388.657 398.243 388.407 397.681 387.917 397.258C387.427 396.835 386.82 396.623 386.097 396.623C385.44 396.623 384.878 396.835 384.41 397.258C383.942 397.67 383.664 398.232 383.575 398.945H388.669ZM397.172 395.02C397.895 395.02 398.541 395.171 399.109 395.471C399.688 395.772 400.139 396.217 400.462 396.807C400.785 397.397 400.946 398.11 400.946 398.945V404.372H399.059V399.229C399.059 398.405 398.853 397.776 398.441 397.342C398.029 396.896 397.467 396.674 396.754 396.674C396.042 396.674 395.474 396.896 395.051 397.342C394.639 397.776 394.433 398.405 394.433 399.229V404.372H392.529V395.171H394.433V396.223C394.745 395.844 395.14 395.549 395.619 395.338C396.109 395.126 396.626 395.02 397.172 395.02ZM405.595 396.724V401.817C405.595 402.162 405.673 402.413 405.829 402.569C405.996 402.713 406.275 402.786 406.664 402.786H407.833V404.372H406.33C405.473 404.372 404.816 404.172 404.36 403.771C403.903 403.37 403.675 402.719 403.675 401.817V396.724H402.589V395.171H403.675V392.883H405.595V395.171H407.833V396.724H405.595Z" fill="#404040"/>
<path d="M230.987 428.394C230.106 428.394 229.294 428.19 228.55 427.782C227.814 427.364 227.229 426.787 226.793 426.052C226.366 425.308 226.153 424.473 226.153 423.547C226.153 422.621 226.366 421.79 226.793 421.055C227.229 420.32 227.814 419.748 228.55 419.339C229.294 418.922 230.106 418.713 230.987 418.713C231.877 418.713 232.689 418.922 233.424 419.339C234.169 419.748 234.754 420.32 235.181 421.055C235.608 421.79 235.821 422.621 235.821 423.547C235.821 424.473 235.608 425.308 235.181 426.052C234.754 426.787 234.169 427.364 233.424 427.782C232.689 428.19 231.877 428.394 230.987 428.394ZM230.987 427.046C231.613 427.046 232.172 426.906 232.662 426.624C233.152 426.334 233.533 425.925 233.806 425.399C234.087 424.863 234.228 424.246 234.228 423.547C234.228 422.848 234.087 422.235 233.806 421.708C233.533 421.182 233.152 420.778 232.662 420.497C232.172 420.215 231.613 420.074 230.987 420.074C230.361 420.074 229.802 420.215 229.312 420.497C228.822 420.778 228.436 421.182 228.155 421.708C227.882 422.235 227.746 422.848 227.746 423.547C227.746 424.246 227.882 424.863 228.155 425.399C228.436 425.925 228.822 426.334 229.312 426.624C229.802 426.906 230.361 427.046 230.987 427.046ZM241.134 420.674C241.724 420.674 242.25 420.796 242.713 421.041C243.185 421.286 243.553 421.649 243.816 422.131C244.08 422.612 244.211 423.193 244.211 423.874V428.299H242.673V424.105C242.673 423.433 242.505 422.92 242.169 422.566C241.833 422.203 241.374 422.022 240.793 422.022C240.212 422.022 239.749 422.203 239.405 422.566C239.069 422.92 238.901 423.433 238.901 424.105V428.299H237.348V420.796H238.901V421.654C239.155 421.345 239.477 421.105 239.867 420.932C240.267 420.76 240.689 420.674 241.134 420.674ZM247.744 418.223V428.299H246.191V418.223H247.744ZM250.571 419.802C250.29 419.802 250.054 419.707 249.863 419.516C249.673 419.326 249.577 419.09 249.577 418.808C249.577 418.527 249.673 418.291 249.863 418.1C250.054 417.909 250.29 417.814 250.571 417.814C250.844 417.814 251.075 417.909 251.266 418.1C251.456 418.291 251.552 418.527 251.552 418.808C251.552 419.09 251.456 419.326 251.266 419.516C251.075 419.707 250.844 419.802 250.571 419.802ZM251.334 420.796V428.299H249.782V420.796H251.334ZM257.157 420.674C257.747 420.674 258.274 420.796 258.737 421.041C259.209 421.286 259.577 421.649 259.84 422.131C260.103 422.612 260.235 423.193 260.235 423.874V428.299H258.696V424.105C258.696 423.433 258.528 422.92 258.192 422.566C257.856 422.203 257.398 422.022 256.817 422.022C256.236 422.022 255.773 422.203 255.428 422.566C255.092 422.92 254.924 423.433 254.924 424.105V428.299H253.372V420.796H254.924V421.654C255.178 421.345 255.501 421.105 255.891 420.932C256.29 420.76 256.713 420.674 257.157 420.674ZM269.091 424.364C269.091 424.645 269.073 424.899 269.037 425.126H263.304C263.35 425.725 263.572 426.207 263.971 426.57C264.371 426.933 264.861 427.114 265.442 427.114C266.277 427.114 266.867 426.765 267.212 426.066H268.887C268.66 426.756 268.247 427.323 267.648 427.768C267.058 428.204 266.323 428.422 265.442 428.422C264.725 428.422 264.08 428.263 263.508 427.945C262.946 427.618 262.501 427.164 262.174 426.583C261.856 425.993 261.697 425.312 261.697 424.541C261.697 423.769 261.852 423.093 262.16 422.512C262.478 421.922 262.918 421.468 263.481 421.15C264.053 420.832 264.707 420.674 265.442 420.674C266.15 420.674 266.781 420.828 267.335 421.137C267.888 421.445 268.32 421.881 268.628 422.444C268.937 422.998 269.091 423.637 269.091 424.364ZM267.471 423.874C267.462 423.302 267.258 422.843 266.858 422.498C266.459 422.153 265.964 421.981 265.374 421.981C264.838 421.981 264.38 422.153 263.999 422.498C263.617 422.834 263.39 423.293 263.318 423.874H267.471ZM273.639 424.514C273.639 423.76 273.793 423.093 274.102 422.512C274.419 421.931 274.846 421.482 275.382 421.164C275.926 420.837 276.525 420.674 277.179 420.674C277.769 420.674 278.282 420.792 278.718 421.028C279.163 421.255 279.517 421.541 279.78 421.885V420.796H281.346V428.299H279.78V427.182C279.517 427.536 279.158 427.831 278.704 428.067C278.25 428.303 277.733 428.422 277.152 428.422C276.507 428.422 275.917 428.258 275.382 427.931C274.846 427.595 274.419 427.132 274.102 426.542C273.793 425.943 273.639 425.267 273.639 424.514ZM279.78 424.541C279.78 424.023 279.671 423.574 279.453 423.193C279.244 422.811 278.967 422.521 278.622 422.321C278.277 422.121 277.905 422.022 277.506 422.022C277.106 422.022 276.734 422.121 276.389 422.321C276.044 422.512 275.763 422.798 275.545 423.179C275.336 423.551 275.232 423.996 275.232 424.514C275.232 425.031 275.336 425.485 275.545 425.875C275.763 426.266 276.044 426.565 276.389 426.774C276.743 426.974 277.115 427.073 277.506 427.073C277.905 427.073 278.277 426.974 278.622 426.774C278.967 426.574 279.244 426.284 279.453 425.902C279.671 425.512 279.78 425.058 279.78 424.541ZM284.937 421.899C285.2 421.554 285.559 421.264 286.013 421.028C286.467 420.792 286.979 420.674 287.551 420.674C288.205 420.674 288.8 420.837 289.335 421.164C289.88 421.482 290.306 421.931 290.615 422.512C290.924 423.093 291.078 423.76 291.078 424.514C291.078 425.267 290.924 425.943 290.615 426.542C290.306 427.132 289.88 427.595 289.335 427.931C288.8 428.258 288.205 428.422 287.551 428.422C286.979 428.422 286.471 428.308 286.026 428.081C285.581 427.845 285.218 427.555 284.937 427.21V431.867H283.385V420.796H284.937V421.899ZM289.499 424.514C289.499 423.996 289.39 423.551 289.172 423.179C288.963 422.798 288.682 422.512 288.327 422.321C287.983 422.121 287.61 422.022 287.211 422.022C286.821 422.022 286.448 422.121 286.094 422.321C285.749 422.521 285.468 422.811 285.25 423.193C285.041 423.574 284.937 424.023 284.937 424.541C284.937 425.058 285.041 425.512 285.25 425.902C285.468 426.284 285.749 426.574 286.094 426.774C286.448 426.974 286.821 427.073 287.211 427.073C287.61 427.073 287.983 426.974 288.327 426.774C288.682 426.565 288.963 426.266 289.172 425.875C289.39 425.485 289.499 425.031 289.499 424.514ZM294.165 421.899C294.429 421.554 294.787 421.264 295.241 421.028C295.695 420.792 296.208 420.674 296.78 420.674C297.433 420.674 298.028 420.837 298.564 421.164C299.108 421.482 299.535 421.931 299.844 422.512C300.152 423.093 300.307 423.76 300.307 424.514C300.307 425.267 300.152 425.943 299.844 426.542C299.535 427.132 299.108 427.595 298.564 427.931C298.028 428.258 297.433 428.422 296.78 428.422C296.208 428.422 295.7 428.308 295.255 428.081C294.81 427.845 294.447 427.555 294.165 427.21V431.867H292.613V420.796H294.165V421.899ZM298.727 424.514C298.727 423.996 298.618 423.551 298.4 423.179C298.191 422.798 297.91 422.512 297.556 422.321C297.211 422.121 296.839 422.022 296.439 422.022C296.049 422.022 295.677 422.121 295.323 422.321C294.978 422.521 294.696 422.811 294.479 423.193C294.27 423.574 294.165 424.023 294.165 424.541C294.165 425.058 294.27 425.512 294.479 425.902C294.696 426.284 294.978 426.574 295.323 426.774C295.677 426.974 296.049 427.073 296.439 427.073C296.839 427.073 297.211 426.974 297.556 426.774C297.91 426.565 298.191 426.266 298.4 425.875C298.618 425.485 298.727 425.031 298.727 424.514ZM305.096 428.422C304.388 428.422 303.748 428.263 303.176 427.945C302.604 427.618 302.155 427.164 301.828 426.583C301.501 425.993 301.338 425.312 301.338 424.541C301.338 423.778 301.506 423.102 301.842 422.512C302.178 421.922 302.636 421.468 303.217 421.15C303.798 420.832 304.447 420.674 305.164 420.674C305.881 420.674 306.53 420.832 307.111 421.15C307.692 421.468 308.151 421.922 308.487 422.512C308.822 423.102 308.99 423.778 308.99 424.541C308.99 425.303 308.818 425.98 308.473 426.57C308.128 427.16 307.656 427.618 307.057 427.945C306.467 428.263 305.813 428.422 305.096 428.422ZM305.096 427.073C305.495 427.073 305.868 426.978 306.213 426.787C306.567 426.597 306.853 426.311 307.07 425.93C307.288 425.548 307.397 425.085 307.397 424.541C307.397 423.996 307.293 423.538 307.084 423.165C306.875 422.784 306.598 422.498 306.253 422.308C305.909 422.117 305.536 422.022 305.137 422.022C304.737 422.022 304.365 422.117 304.02 422.308C303.684 422.498 303.417 422.784 303.217 423.165C303.017 423.538 302.917 423.996 302.917 424.541C302.917 425.349 303.122 425.975 303.53 426.42C303.948 426.856 304.47 427.073 305.096 427.073ZM311.315 419.802C311.033 419.802 310.797 419.707 310.607 419.516C310.416 419.326 310.321 419.09 310.321 418.808C310.321 418.527 310.416 418.291 310.607 418.1C310.797 417.909 311.033 417.814 311.315 417.814C311.587 417.814 311.819 417.909 312.009 418.1C312.2 418.291 312.295 418.527 312.295 418.808C312.295 419.09 312.2 419.326 312.009 419.516C311.819 419.707 311.587 419.802 311.315 419.802ZM312.077 420.796V428.299H310.525V420.796H312.077ZM317.901 420.674C318.491 420.674 319.017 420.796 319.48 421.041C319.952 421.286 320.32 421.649 320.583 422.131C320.847 422.612 320.978 423.193 320.978 423.874V428.299H319.439V424.105C319.439 423.433 319.272 422.92 318.936 422.566C318.6 422.203 318.141 422.022 317.56 422.022C316.979 422.022 316.516 422.203 316.171 422.566C315.836 422.92 315.668 423.433 315.668 424.105V428.299H314.115V420.796H315.668V421.654C315.922 421.345 316.244 421.105 316.634 420.932C317.034 420.76 317.456 420.674 317.901 420.674ZM324.769 422.062V426.216C324.769 426.497 324.833 426.701 324.96 426.828C325.096 426.946 325.323 427.005 325.641 427.005H326.594V428.299H325.368C324.669 428.299 324.134 428.136 323.762 427.809C323.389 427.482 323.203 426.951 323.203 426.216V422.062H322.318V420.796H323.203V418.931H324.769V420.796H326.594V422.062H324.769ZM337.107 420.674C337.697 420.674 338.224 420.796 338.686 421.041C339.159 421.286 339.526 421.649 339.789 422.131C340.062 422.612 340.198 423.193 340.198 423.874V428.299H338.659V424.105C338.659 423.433 338.491 422.92 338.155 422.566C337.82 422.203 337.361 422.022 336.78 422.022C336.199 422.022 335.736 422.203 335.391 422.566C335.055 422.92 334.887 423.433 334.887 424.105V428.299H333.349V424.105C333.349 423.433 333.181 422.92 332.845 422.566C332.509 422.203 332.051 422.022 331.47 422.022C330.889 422.022 330.426 422.203 330.081 422.566C329.745 422.92 329.577 423.433 329.577 424.105V428.299H328.025V420.796H329.577V421.654C329.831 421.345 330.153 421.105 330.544 420.932C330.934 420.76 331.352 420.674 331.796 420.674C332.396 420.674 332.931 420.801 333.403 421.055C333.875 421.309 334.238 421.677 334.493 422.158C334.719 421.704 335.074 421.345 335.555 421.082C336.036 420.81 336.553 420.674 337.107 420.674ZM349.05 424.364C349.05 424.645 349.032 424.899 348.995 425.126H343.263C343.308 425.725 343.53 426.207 343.93 426.57C344.329 426.933 344.819 427.114 345.4 427.114C346.236 427.114 346.826 426.765 347.171 426.066H348.845C348.618 426.756 348.205 427.323 347.606 427.768C347.016 428.204 346.281 428.422 345.4 428.422C344.683 428.422 344.039 428.263 343.467 427.945C342.904 427.618 342.459 427.164 342.132 426.583C341.815 425.993 341.656 425.312 341.656 424.541C341.656 423.769 341.81 423.093 342.119 422.512C342.436 421.922 342.877 421.468 343.44 421.15C344.011 420.832 344.665 420.674 345.4 420.674C346.108 420.674 346.739 420.828 347.293 421.137C347.847 421.445 348.278 421.881 348.587 422.444C348.895 422.998 349.05 423.637 349.05 424.364ZM347.429 423.874C347.42 423.302 347.216 422.843 346.817 422.498C346.417 422.153 345.922 421.981 345.332 421.981C344.797 421.981 344.338 422.153 343.957 422.498C343.576 422.834 343.349 423.293 343.276 423.874H347.429ZM354.363 420.674C354.953 420.674 355.479 420.796 355.942 421.041C356.414 421.286 356.782 421.649 357.045 422.131C357.308 422.612 357.44 423.193 357.44 423.874V428.299H355.901V424.105C355.901 423.433 355.733 422.92 355.398 422.566C355.062 422.203 354.603 422.022 354.022 422.022C353.441 422.022 352.978 422.203 352.633 422.566C352.298 422.92 352.13 423.433 352.13 424.105V428.299H350.577V420.796H352.13V421.654C352.384 421.345 352.706 421.105 353.096 420.932C353.496 420.76 353.918 420.674 354.363 420.674ZM361.231 422.062V426.216C361.231 426.497 361.295 426.701 361.422 426.828C361.558 426.946 361.785 427.005 362.103 427.005H363.056V428.299H361.83C361.131 428.299 360.596 428.136 360.224 427.809C359.851 427.482 359.665 426.951 359.665 426.216V422.062H358.78V420.796H359.665V418.931H361.231V420.796H363.056V422.062H361.231Z" fill="#9D9D9D"/>
<path d="M183.335 396.051H179.737C178.783 396.051 177.867 396.43 177.192 397.105C176.518 397.78 176.138 398.695 176.138 399.649V421.241C176.138 422.195 176.518 423.11 177.192 423.785C177.867 424.46 178.783 424.839 179.737 424.839H197.73C198.684 424.839 199.599 424.46 200.274 423.785C200.949 423.11 201.328 422.195 201.328 421.241V399.649C201.328 398.695 200.949 397.78 200.274 397.105C199.599 396.43 198.684 396.051 197.73 396.051H194.131" stroke="#4200FF" stroke-width="3.47443" stroke-linecap="round" stroke-linejoin="round"/>
<path d="M190.533 392.452H186.934C184.947 392.452 183.336 394.064 183.336 396.051C183.336 398.038 184.947 399.649 186.934 399.649H190.533C192.52 399.649 194.131 398.038 194.131 396.051C194.131 394.064 192.52 392.452 190.533 392.452Z" stroke="#4200FF" stroke-width="3.47443" stroke-linecap="round" stroke-linejoin="round"/>
<path d="M190.533 415.843H194.131M183.336 408.646H183.354H183.336ZM190.533 408.646H194.131H190.533ZM183.336 415.843H183.354H183.336Z" stroke="#4200FF" stroke-width="3.47443" stroke-linecap="round" stroke-linejoin="round"/>
<defs>
<filter id="filter0_bd_505_26341" x="117.257" y="102.257" width="359.979" height="136.529" filterUnits="userSpaceOnUse" color-interpolation-filters="sRGB">
<feFlood flood-opacity="0" result="BackgroundImageFix"/>
<feGaussianBlur in="BackgroundImageFix" stdDeviation="14.3715"/>
<feComposite in2="SourceAlpha" operator="in" result="effect1_backgroundBlur_505_26341"/>
<feColorMatrix in="SourceAlpha" type="matrix" values="0 0 0 0 0 0 0 0 0 0 0 0 0 0 0 0 0 0 127 0" result="hardAlpha"/>
<feMorphology radius="0.718575" operator="erode" in="SourceAlpha" result="effect2_dropShadow_505_26341"/>
<feOffset dy="2.8743"/>
<feGaussianBlur stdDeviation="8.6229"/>
<feComposite in2="hardAlpha" operator="out"/>
<feColorMatrix type="matrix" values="0 0 0 0 0 0 0 0 0 0 0 0 0 0 0 0 0 0 0.2 0"/>
<feBlend mode="normal" in2="effect1_backgroundBlur_505_26341" result="effect2_dropShadow_505_26341"/>
<feBlend mode="normal" in="SourceGraphic" in2="effect2_dropShadow_505_26341" result="shape"/>
</filter>
<filter id="filter1_bd_505_26341" x="161.257" y="221.257" width="266.591" height="136.529" filterUnits="userSpaceOnUse" color-interpolation-filters="sRGB">
<feFlood flood-opacity="0" result="BackgroundImageFix"/>
<feGaussianBlur in="BackgroundImageFix" stdDeviation="14.3715"/>
<feComposite in2="SourceAlpha" operator="in" result="effect1_backgroundBlur_505_26341"/>
<feColorMatrix in="SourceAlpha" type="matrix" values="0 0 0 0 0 0 0 0 0 0 0 0 0 0 0 0 0 0 127 0" result="hardAlpha"/>
<feMorphology radius="0.718575" operator="erode" in="SourceAlpha" result="effect2_dropShadow_505_26341"/>
<feOffset dy="2.8743"/>
<feGaussianBlur stdDeviation="8.6229"/>
<feComposite in2="hardAlpha" operator="out"/>
<feColorMatrix type="matrix" values="0 0 0 0 0 0 0 0 0 0 0 0 0 0 0 0 0 0 0.2 0"/>
<feBlend mode="normal" in2="effect1_backgroundBlur_505_26341" result="effect2_dropShadow_505_26341"/>
<feBlend mode="normal" in="SourceGraphic" in2="effect2_dropShadow_505_26341" result="shape"/>
</filter>
<filter id="filter2_bd_505_26341" x="115.257" y="340.257" width="359.979" height="146.953" filterUnits="userSpaceOnUse" color-interpolation-filters="sRGB">
<feFlood flood-opacity="0" result="BackgroundImageFix"/>
<feGaussianBlur in="BackgroundImageFix" stdDeviation="14.3715"/>
<feComposite in2="SourceAlpha" operator="in" result="effect1_backgroundBlur_505_26341"/>
<feColorMatrix in="SourceAlpha" type="matrix" values="0 0 0 0 0 0 0 0 0 0 0 0 0 0 0 0 0 0 127 0" result="hardAlpha"/>
<feOffset dy="2.8743"/>
<feGaussianBlur stdDeviation="8.6229"/>
<feComposite in2="hardAlpha" operator="out"/>
<feColorMatrix type="matrix" values="0 0 0 0 0 0 0 0 0 0 0 0 0 0 0 0 0 0 0.2 0"/>
<feBlend mode="normal" in2="effect1_backgroundBlur_505_26341" result="effect2_dropShadow_505_26341"/>
<feBlend mode="normal" in="SourceGraphic" in2="effect2_dropShadow_505_26341" result="shape"/>
</filter>
<linearGradient id="paint0_linear_505_26341" x1="234.108" y1="250" x2="279.84" y2="339.825" gradientUnits="userSpaceOnUse">
<stop stop-color="white" stop-opacity="0.4"/>
<stop offset="1" stop-color="white" stop-opacity="0.1"/>
</linearGradient>
<linearGradient id="paint1_linear_505_26341" x1="241.296" y1="250" x2="302.335" y2="360.904" gradientUnits="userSpaceOnUse">
<stop stop-color="white"/>
<stop offset="0.317708" stop-color="#FCF5D5"/>
<stop offset="0.541667" stop-color="#F8EBA8"/>
<stop offset="1" stop-color="#F4DF73"/>
</linearGradient>
</defs>
</svg>
