<svg width="457" height="352" viewBox="0 0 457 352" fill="none" xmlns="http://www.w3.org/2000/svg">
<g filter="url(#filter0_bd_524_26377)">
<rect x="17" y="14" width="309.658" height="80.9157" rx="28.743" fill="white"/>
</g>
<path d="M111.614 34.6205L108.174 46.2268H106.019L103.581 37.4427L100.993 46.2268L98.8552 46.2435L95.5653 34.6205H97.586L99.9908 44.0725L102.596 34.6205H104.734L107.155 44.0224L109.576 34.6205H111.614ZM121.617 41.4006C121.617 41.7457 121.595 42.0574 121.551 42.3358H114.52C114.576 43.0706 114.848 43.6606 115.338 44.1059C115.828 44.5513 116.429 44.7739 117.142 44.7739C118.166 44.7739 118.89 44.3453 119.313 43.488H121.367C121.089 44.3342 120.582 45.03 119.847 45.5755C119.124 46.1099 118.222 46.3771 117.142 46.3771C116.262 46.3771 115.472 46.1823 114.77 45.7926C114.08 45.3918 113.535 44.8352 113.134 44.1226C112.744 43.399 112.549 42.564 112.549 41.6177C112.549 40.6714 112.739 39.8419 113.117 39.1294C113.507 38.4058 114.047 37.8491 114.737 37.4594C115.438 37.0698 116.24 36.8749 117.142 36.8749C118.01 36.8749 118.784 37.0642 119.463 37.4427C120.142 37.8213 120.671 38.3557 121.05 39.0459C121.428 39.725 121.617 40.5099 121.617 41.4006ZM119.63 40.7994C119.619 40.098 119.368 39.5358 118.879 39.1127C118.389 38.6897 117.782 38.4781 117.058 38.4781C116.401 38.4781 115.839 38.6897 115.372 39.1127C114.904 39.5246 114.626 40.0869 114.537 40.7994H119.63ZM125.395 33.869V46.2268H123.491V33.869H125.395ZM129.798 33.869V46.2268H127.894V33.869H129.798ZM145.62 48.331L143.582 46.1266C143.081 46.2713 142.53 46.3437 141.929 46.3437C140.849 46.3437 139.853 46.0932 138.94 45.5922C138.038 45.0801 137.32 44.3731 136.786 43.4713C136.262 42.5584 136.001 41.5342 136.001 40.3986C136.001 39.263 136.262 38.2443 136.786 37.3425C137.32 36.4407 138.038 35.7394 138.94 35.2384C139.853 34.7262 140.849 34.4702 141.929 34.4702C143.02 34.4702 144.017 34.7262 144.918 35.2384C145.831 35.7394 146.549 36.4407 147.073 37.3425C147.596 38.2443 147.858 39.263 147.858 40.3986C147.858 41.4674 147.624 42.436 147.156 43.3043C146.7 44.1616 146.065 44.8519 145.252 45.3751L148.041 48.331H145.62ZM137.955 40.3986C137.955 41.2558 138.122 42.0129 138.456 42.6698C138.801 43.3155 139.274 43.8165 139.875 44.1727C140.476 44.5179 141.161 44.6904 141.929 44.6904C142.697 44.6904 143.382 44.5179 143.983 44.1727C144.584 43.8165 145.052 43.3155 145.386 42.6698C145.731 42.0129 145.904 41.2558 145.904 40.3986C145.904 39.5413 145.731 38.7898 145.386 38.1441C145.052 37.4984 144.584 37.003 143.983 36.6578C143.382 36.3127 142.697 36.1402 141.929 36.1402C141.161 36.1402 140.476 36.3127 139.875 36.6578C139.274 37.003 138.801 37.4984 138.456 38.1441C138.122 38.7898 137.955 39.5413 137.955 40.3986ZM158.113 37.0252V46.2268H156.209V45.1413C155.909 45.5199 155.514 45.8204 155.024 46.0431C154.545 46.2546 154.033 46.3604 153.487 46.3604C152.764 46.3604 152.112 46.2101 151.533 45.9095C150.966 45.6089 150.515 45.1636 150.181 44.5735C149.858 43.9835 149.696 43.2709 149.696 42.436V37.0252H151.583V42.1521C151.583 42.9759 151.789 43.6105 152.201 44.0558C152.613 44.49 153.176 44.7071 153.888 44.7071C154.601 44.7071 155.163 44.49 155.575 44.0558C155.998 43.6105 156.209 42.9759 156.209 42.1521V37.0252H158.113ZM159.99 41.5843C159.99 40.6602 160.18 39.8419 160.558 39.1294C160.948 38.4169 161.471 37.8658 162.128 37.4761C162.796 37.0753 163.531 36.8749 164.332 36.8749C165.056 36.8749 165.685 37.0197 166.219 37.3091C166.765 37.5875 167.199 37.9382 167.522 38.3612V37.0252H169.442V46.2268H167.522V44.8574C167.199 45.2916 166.759 45.6534 166.203 45.9429C165.646 46.2324 165.011 46.3771 164.299 46.3771C163.508 46.3771 162.785 46.1767 162.128 45.7759C161.471 45.364 160.948 44.7962 160.558 44.0725C160.18 43.3377 159.99 42.5083 159.99 41.5843ZM167.522 41.6177C167.522 40.9831 167.388 40.432 167.121 39.9644C166.865 39.4968 166.526 39.1405 166.102 38.8956C165.679 38.6507 165.223 38.5282 164.733 38.5282C164.243 38.5282 163.787 38.6507 163.364 38.8956C162.941 39.1294 162.596 39.4801 162.328 39.9477C162.072 40.4042 161.944 40.9497 161.944 41.5843C161.944 42.2189 162.072 42.7755 162.328 43.2543C162.596 43.733 162.941 44.1004 163.364 44.3564C163.798 44.6014 164.254 44.7238 164.733 44.7238C165.223 44.7238 165.679 44.6014 166.102 44.3564C166.526 44.1115 166.865 43.7552 167.121 43.2876C167.388 42.8089 167.522 42.2523 167.522 41.6177ZM173.847 33.869V46.2268H171.943V33.869H173.847ZM177.315 35.8062C176.97 35.8062 176.68 35.6893 176.446 35.4555C176.213 35.2217 176.096 34.9322 176.096 34.5871C176.096 34.2419 176.213 33.9525 176.446 33.7187C176.68 33.4849 176.97 33.368 177.315 33.368C177.649 33.368 177.933 33.4849 178.167 33.7187C178.4 33.9525 178.517 34.2419 178.517 34.5871C178.517 34.9322 178.4 35.2217 178.167 35.4555C177.933 35.6893 177.649 35.8062 177.315 35.8062ZM178.25 37.0252V46.2268H176.346V37.0252H178.25ZM184.607 38.5783H182.904V46.2268H180.983V38.5783H179.898V37.0252H180.983V36.374C180.983 35.3163 181.262 34.5481 181.818 34.0694C182.386 33.5795 183.271 33.3346 184.474 33.3346V34.9211C183.895 34.9211 183.488 35.0324 183.254 35.2551C183.021 35.4666 182.904 35.8396 182.904 36.374V37.0252H184.607V38.5783ZM187.263 35.8062C186.918 35.8062 186.628 35.6893 186.395 35.4555C186.161 35.2217 186.044 34.9322 186.044 34.5871C186.044 34.2419 186.161 33.9525 186.395 33.7187C186.628 33.4849 186.918 33.368 187.263 33.368C187.597 33.368 187.881 33.4849 188.115 33.7187C188.348 33.9525 188.465 34.2419 188.465 34.5871C188.465 34.9322 188.348 35.2217 188.115 35.4555C187.881 35.6893 187.597 35.8062 187.263 35.8062ZM188.198 37.0252V46.2268H186.294V37.0252H188.198ZM199.131 41.4006C199.131 41.7457 199.109 42.0574 199.064 42.3358H192.034C192.089 43.0706 192.362 43.6606 192.852 44.1059C193.342 44.5513 193.943 44.7739 194.655 44.7739C195.68 44.7739 196.403 44.3453 196.826 43.488H198.88C198.602 44.3342 198.096 45.03 197.361 45.5755C196.637 46.1099 195.735 46.3771 194.655 46.3771C193.776 46.3771 192.985 46.1823 192.284 45.7926C191.594 45.3918 191.048 44.8352 190.647 44.1226C190.258 43.399 190.063 42.564 190.063 41.6177C190.063 40.6714 190.252 39.8419 190.631 39.1294C191.02 38.4058 191.56 37.8491 192.251 37.4594C192.952 37.0698 193.754 36.8749 194.655 36.8749C195.524 36.8749 196.298 37.0642 196.977 37.4427C197.656 37.8213 198.185 38.3557 198.563 39.0459C198.942 39.725 199.131 40.5099 199.131 41.4006ZM197.144 40.7994C197.133 40.098 196.882 39.5358 196.392 39.1127C195.902 38.6897 195.296 38.4781 194.572 38.4781C193.915 38.4781 193.353 38.6897 192.885 39.1127C192.418 39.5246 192.139 40.0869 192.05 40.7994H197.144ZM200.37 41.5843C200.37 40.6602 200.559 39.8419 200.938 39.1294C201.327 38.4169 201.851 37.8658 202.507 37.4761C203.175 37.0753 203.916 36.8749 204.729 36.8749C205.33 36.8749 205.92 37.0085 206.499 37.2757C207.089 37.5318 207.556 37.8769 207.901 38.3111V33.869H209.822V46.2268H207.901V44.8407C207.59 45.2861 207.156 45.6534 206.599 45.9429C206.053 46.2324 205.424 46.3771 204.712 46.3771C203.91 46.3771 203.175 46.1767 202.507 45.7759C201.851 45.364 201.327 44.7962 200.938 44.0725C200.559 43.3377 200.37 42.5083 200.37 41.5843ZM207.901 41.6177C207.901 40.9831 207.768 40.432 207.501 39.9644C207.245 39.4968 206.905 39.1405 206.482 38.8956C206.059 38.6507 205.602 38.5282 205.113 38.5282C204.623 38.5282 204.166 38.6507 203.743 38.8956C203.32 39.1294 202.975 39.4801 202.708 39.9477C202.452 40.4042 202.324 40.9497 202.324 41.5843C202.324 42.2189 202.452 42.7755 202.708 43.2543C202.975 43.733 203.32 44.1004 203.743 44.3564C204.177 44.6014 204.634 44.7238 205.113 44.7238C205.602 44.7238 206.059 44.6014 206.482 44.3564C206.905 44.1115 207.245 43.7552 207.501 43.2876C207.768 42.8089 207.901 42.2523 207.901 41.6177ZM216.026 41.5843C216.026 40.6602 216.215 39.8419 216.594 39.1294C216.983 38.4169 217.507 37.8658 218.163 37.4761C218.831 37.0753 219.572 36.8749 220.385 36.8749C220.986 36.8749 221.576 37.0085 222.155 37.2757C222.745 37.5318 223.212 37.8769 223.557 38.3111V33.869H225.478V46.2268H223.557V44.8407C223.246 45.2861 222.812 45.6534 222.255 45.9429C221.709 46.2324 221.08 46.3771 220.368 46.3771C219.566 46.3771 218.831 46.1767 218.163 45.7759C217.507 45.364 216.983 44.7962 216.594 44.0725C216.215 43.3377 216.026 42.5083 216.026 41.5843ZM223.557 41.6177C223.557 40.9831 223.424 40.432 223.157 39.9644C222.901 39.4968 222.561 39.1405 222.138 38.8956C221.715 38.6507 221.258 38.5282 220.769 38.5282C220.279 38.5282 219.822 38.6507 219.399 38.8956C218.976 39.1294 218.631 39.4801 218.364 39.9477C218.108 40.4042 217.98 40.9497 217.98 41.5843C217.98 42.2189 218.108 42.7755 218.364 43.2543C218.631 43.733 218.976 44.1004 219.399 44.3564C219.833 44.6014 220.29 44.7238 220.769 44.7238C221.258 44.7238 221.715 44.6014 222.138 44.3564C222.561 44.1115 222.901 43.7552 223.157 43.2876C223.424 42.8089 223.557 42.2523 223.557 41.6177ZM231.97 46.3771C231.101 46.3771 230.316 46.1823 229.615 45.7926C228.914 45.3918 228.363 44.8352 227.962 44.1226C227.561 43.399 227.361 42.564 227.361 41.6177C227.361 40.6825 227.567 39.8531 227.978 39.1294C228.39 38.4058 228.953 37.8491 229.665 37.4594C230.378 37.0698 231.174 36.8749 232.053 36.8749C232.933 36.8749 233.729 37.0698 234.441 37.4594C235.154 37.8491 235.716 38.4058 236.128 39.1294C236.54 39.8531 236.746 40.6825 236.746 41.6177C236.746 42.5529 236.534 43.3823 236.111 44.1059C235.688 44.8296 235.109 45.3918 234.374 45.7926C233.651 46.1823 232.849 46.3771 231.97 46.3771ZM231.97 44.7238C232.46 44.7238 232.916 44.6069 233.339 44.3731C233.773 44.1393 234.124 43.7886 234.391 43.321C234.658 42.8535 234.792 42.2857 234.792 41.6177C234.792 40.9497 234.664 40.3875 234.408 39.931C234.152 39.4634 233.812 39.1127 233.389 38.8789C232.966 38.6451 232.51 38.5282 232.02 38.5282C231.53 38.5282 231.074 38.6451 230.65 38.8789C230.239 39.1127 229.91 39.4634 229.665 39.931C229.42 40.3875 229.298 40.9497 229.298 41.6177C229.298 42.6085 229.548 43.3767 230.049 43.9222C230.561 44.4566 231.202 44.7238 231.97 44.7238ZM237.993 41.6177C237.993 40.6714 238.183 39.8419 238.561 39.1294C238.951 38.4058 239.485 37.8491 240.164 37.4594C240.843 37.0698 241.623 36.8749 242.502 36.8749C243.615 36.8749 244.534 37.1421 245.258 37.6765C245.992 38.1998 246.488 38.9513 246.744 39.931H244.69C244.523 39.4745 244.256 39.1183 243.888 38.8622C243.521 38.6062 243.059 38.4781 242.502 38.4781C241.723 38.4781 241.099 38.7564 240.632 39.3131C240.175 39.8586 239.947 40.6268 239.947 41.6177C239.947 42.6085 240.175 43.3823 240.632 43.9389C241.099 44.4956 241.723 44.7739 242.502 44.7739C243.604 44.7739 244.334 44.2896 244.69 43.321H246.744C246.477 44.2562 245.976 45.0022 245.241 45.5588C244.506 46.1043 243.593 46.3771 242.502 46.3771C241.623 46.3771 240.843 46.1823 240.164 45.7926C239.485 45.3918 238.951 44.8352 238.561 44.1226C238.183 43.399 237.993 42.564 237.993 41.6177ZM250.862 38.5783V43.6717C250.862 44.0169 250.94 44.2674 251.096 44.4232C251.263 44.568 251.541 44.6403 251.931 44.6403H253.1V46.2268H251.597C250.74 46.2268 250.083 46.0264 249.626 45.6256C249.17 45.2248 248.942 44.5735 248.942 43.6717V38.5783H247.856V37.0252H248.942V34.7374H250.862V37.0252H253.1V38.5783H250.862ZM258.846 46.3771C257.978 46.3771 257.193 46.1823 256.491 45.7926C255.79 45.3918 255.239 44.8352 254.838 44.1226C254.437 43.399 254.237 42.564 254.237 41.6177C254.237 40.6825 254.443 39.8531 254.855 39.1294C255.267 38.4058 255.829 37.8491 256.541 37.4594C257.254 37.0698 258.05 36.8749 258.929 36.8749C259.809 36.8749 260.605 37.0698 261.317 37.4594C262.03 37.8491 262.592 38.4058 263.004 39.1294C263.416 39.8531 263.622 40.6825 263.622 41.6177C263.622 42.5529 263.41 43.3823 262.987 44.1059C262.564 44.8296 261.985 45.3918 261.251 45.7926C260.527 46.1823 259.725 46.3771 258.846 46.3771ZM258.846 44.7238C259.336 44.7238 259.792 44.6069 260.215 44.3731C260.649 44.1393 261 43.7886 261.267 43.321C261.535 42.8535 261.668 42.2857 261.668 41.6177C261.668 40.9497 261.54 40.3875 261.284 39.931C261.028 39.4634 260.688 39.1127 260.265 38.8789C259.842 38.6451 259.386 38.5282 258.896 38.5282C258.406 38.5282 257.95 38.6451 257.527 38.8789C257.115 39.1127 256.786 39.4634 256.541 39.931C256.296 40.3875 256.174 40.9497 256.174 41.6177C256.174 42.6085 256.424 43.3767 256.925 43.9222C257.438 44.4566 258.078 44.7238 258.846 44.7238ZM267.408 38.3612C267.686 37.8936 268.054 37.5318 268.51 37.2757C268.978 37.0085 269.529 36.8749 270.163 36.8749V38.8455H269.679C268.933 38.8455 268.365 39.0348 267.976 39.4133C267.597 39.7918 267.408 40.4487 267.408 41.3839V46.2268H265.504V37.0252H267.408V38.3612ZM275.253 46.3771C274.529 46.3771 273.878 46.2491 273.299 45.993C272.731 45.7258 272.281 45.3696 271.947 44.9242C271.613 44.4678 271.434 43.9612 271.412 43.4045H273.383C273.416 43.7942 273.6 44.1226 273.934 44.3898C274.279 44.6459 274.708 44.7739 275.22 44.7739C275.754 44.7739 276.166 44.6737 276.456 44.4733C276.756 44.2618 276.906 43.9946 276.906 43.6717C276.906 43.3266 276.739 43.0706 276.405 42.9036C276.083 42.7366 275.565 42.5529 274.852 42.3525C274.162 42.1632 273.6 41.9795 273.166 41.8014C272.731 41.6232 272.353 41.3505 272.03 40.9831C271.718 40.6157 271.562 40.1314 271.562 39.5302C271.562 39.0403 271.707 38.595 271.997 38.1942C272.286 37.7823 272.698 37.4594 273.232 37.2256C273.778 36.9918 274.401 36.8749 275.103 36.8749C276.149 36.8749 276.99 37.1421 277.625 37.6765C278.27 38.1998 278.615 38.9179 278.66 39.8308H276.756C276.723 39.4189 276.556 39.0904 276.255 38.8455C275.955 38.6006 275.548 38.4781 275.036 38.4781C274.535 38.4781 274.151 38.5728 273.884 38.762C273.617 38.9513 273.483 39.2018 273.483 39.5135C273.483 39.7584 273.572 39.9644 273.75 40.1314C273.928 40.2984 274.145 40.432 274.401 40.5322C274.658 40.6213 275.036 40.7382 275.537 40.8829C276.205 41.061 276.751 41.2447 277.174 41.434C277.608 41.6121 277.981 41.8793 278.292 42.2356C278.604 42.5918 278.766 43.065 278.777 43.655C278.777 44.1783 278.632 44.6459 278.343 45.0578C278.053 45.4698 277.641 45.7926 277.107 46.0264C276.584 46.2602 275.966 46.3771 275.253 46.3771Z" fill="#404040"/>
<path d="M102.412 56.8441V58.1156H99.8826V66.3457H98.3241V58.1156H95.7812V56.8441H102.412ZM105.549 59.9065C105.777 59.5237 106.077 59.2275 106.451 59.0179C106.834 58.7991 107.285 58.6898 107.804 58.6898V60.303H107.408C106.797 60.303 106.333 60.4579 106.014 60.7678C105.704 61.0777 105.549 61.6154 105.549 62.381V66.3457H103.99V58.8128H105.549V59.9065ZM116.141 62.3947C116.141 62.6772 116.123 62.9324 116.086 63.1603H110.331C110.376 63.7618 110.6 64.2449 111.001 64.6094C111.402 64.974 111.894 65.1563 112.477 65.1563C113.316 65.1563 113.908 64.8054 114.254 64.1036H115.936C115.708 64.7963 115.293 65.3659 114.692 65.8125C114.1 66.25 113.361 66.4687 112.477 66.4687C111.757 66.4687 111.11 66.3092 110.536 65.9902C109.971 65.6621 109.524 65.2064 109.196 64.6231C108.877 64.0307 108.718 63.3471 108.718 62.5724C108.718 61.7977 108.873 61.1187 109.182 60.5354C109.501 59.943 109.943 59.4873 110.509 59.1683C111.083 58.8493 111.739 58.6898 112.477 58.6898C113.188 58.6898 113.822 58.8447 114.378 59.1546C114.933 59.4645 115.366 59.902 115.676 60.467C115.986 61.023 116.141 61.6656 116.141 62.3947ZM114.514 61.9025C114.505 61.3283 114.3 60.8681 113.899 60.5217C113.498 60.1754 113.001 60.0022 112.409 60.0022C111.871 60.0022 111.411 60.1754 111.028 60.5217C110.645 60.859 110.417 61.3192 110.344 61.9025H114.514ZM117.155 62.5451C117.155 61.7886 117.31 61.1187 117.62 60.5354C117.939 59.9521 118.368 59.5009 118.905 59.1819C119.452 58.8538 120.054 58.6898 120.71 58.6898C121.302 58.6898 121.817 58.8083 122.255 59.0452C122.701 59.2731 123.057 59.5602 123.321 59.9065V58.8128H124.893V66.3457H123.321V65.2247C123.057 65.5801 122.697 65.8763 122.241 66.1133C121.785 66.3503 121.266 66.4687 120.683 66.4687C120.035 66.4687 119.443 66.3047 118.905 65.9766C118.368 65.6394 117.939 65.1745 117.62 64.5821C117.31 63.9806 117.155 63.3016 117.155 62.5451ZM123.321 62.5724C123.321 62.0529 123.212 61.6018 122.993 61.219C122.783 60.8362 122.505 60.5445 122.159 60.344C121.813 60.1435 121.439 60.0432 121.038 60.0432C120.637 60.0432 120.263 60.1435 119.917 60.344C119.571 60.5354 119.288 60.8225 119.069 61.2053C118.86 61.579 118.755 62.0256 118.755 62.5451C118.755 63.0646 118.86 63.5203 119.069 63.9122C119.288 64.3041 119.571 64.6049 119.917 64.8145C120.272 65.015 120.646 65.1153 121.038 65.1153C121.439 65.1153 121.813 65.015 122.159 64.8145C122.505 64.614 122.783 64.3224 122.993 63.9396C123.212 63.5476 123.321 63.0919 123.321 62.5724ZM128.759 60.0842V64.254C128.759 64.5365 128.822 64.7416 128.95 64.8692C129.087 64.9877 129.315 65.0469 129.634 65.0469H130.591V66.3457H129.36C128.658 66.3457 128.121 66.1816 127.747 65.8535C127.373 65.5254 127.186 64.9922 127.186 64.254V60.0842H126.298V58.8128H127.186V56.9398H128.759V58.8128H130.591V60.0842H128.759ZM145.695 58.8128L143.357 66.3457H141.717L140.199 60.7815L138.682 66.3457H137.041L134.69 58.8128H136.276L137.848 64.8692L139.447 58.8128H141.074L142.605 64.8419L144.164 58.8128H145.695ZM147.653 57.8148C147.37 57.8148 147.133 57.7191 146.942 57.5277C146.751 57.3363 146.655 57.0993 146.655 56.8168C146.655 56.5343 146.751 56.2973 146.942 56.1059C147.133 55.9145 147.37 55.8188 147.653 55.8188C147.926 55.8188 148.159 55.9145 148.35 56.1059C148.541 56.2973 148.637 56.5343 148.637 56.8168C148.637 57.0993 148.541 57.3363 148.35 57.5277C148.159 57.7191 147.926 57.8148 147.653 57.8148ZM148.418 58.8128V66.3457H146.86V58.8128H148.418ZM152.283 60.0842V64.254C152.283 64.5365 152.347 64.7416 152.474 64.8692C152.611 64.9877 152.839 65.0469 153.158 65.0469H154.115V66.3457H152.884C152.183 66.3457 151.645 66.1816 151.271 65.8535C150.898 65.5254 150.711 64.9922 150.711 64.254V60.0842H149.822V58.8128H150.711V56.9398H152.283V58.8128H154.115V60.0842H152.283ZM159.448 58.6898C160.022 58.6898 160.532 58.8128 160.979 59.0589C161.435 59.305 161.79 59.6695 162.045 60.1526C162.309 60.6357 162.442 61.219 162.442 61.9025V66.3457H160.897V62.1349C160.897 61.4605 160.728 60.9455 160.391 60.5901C160.054 60.2255 159.593 60.0432 159.01 60.0432C158.427 60.0432 157.962 60.2255 157.616 60.5901C157.278 60.9455 157.11 61.4605 157.11 62.1349V66.3457H155.551V56.2289H157.11V59.6878C157.374 59.3688 157.707 59.1227 158.108 58.9495C158.518 58.7764 158.965 58.6898 159.448 58.6898ZM167.461 62.5724C167.461 61.7977 167.616 61.1187 167.926 60.5354C168.245 59.943 168.683 59.4873 169.239 59.1683C169.795 58.8493 170.433 58.6898 171.153 58.6898C172.064 58.6898 172.816 58.9085 173.408 59.346C174.01 59.7744 174.416 60.3896 174.625 61.1916H172.944C172.807 60.8179 172.588 60.5263 172.287 60.3167C171.987 60.107 171.608 60.0022 171.153 60.0022C170.515 60.0022 170.004 60.2301 169.622 60.6858C169.248 61.1324 169.061 61.7613 169.061 62.5724C169.061 63.3836 169.248 64.017 169.622 64.4727C170.004 64.9284 170.515 65.1563 171.153 65.1563C172.055 65.1563 172.652 64.7598 172.944 63.9669H174.625C174.406 64.7325 173.996 65.3431 173.395 65.7989C172.793 66.2454 172.046 66.4687 171.153 66.4687C170.433 66.4687 169.795 66.3092 169.239 65.9902C168.683 65.6621 168.245 65.2064 167.926 64.6231C167.616 64.0307 167.461 63.3471 167.461 62.5724ZM175.659 62.5451C175.659 61.7886 175.814 61.1187 176.124 60.5354C176.443 59.9521 176.871 59.5009 177.409 59.1819C177.956 58.8538 178.557 58.6898 179.213 58.6898C179.806 58.6898 180.321 58.8083 180.758 59.0452C181.205 59.2731 181.56 59.5602 181.825 59.9065V58.8128H183.397V66.3457H181.825V65.2247C181.56 65.5801 181.2 65.8763 180.745 66.1133C180.289 66.3503 179.769 66.4687 179.186 66.4687C178.539 66.4687 177.947 66.3047 177.409 65.9766C176.871 65.6394 176.443 65.1745 176.124 64.5821C175.814 63.9806 175.659 63.3016 175.659 62.5451ZM181.825 62.5724C181.825 62.0529 181.715 61.6018 181.497 61.219C181.287 60.8362 181.009 60.5445 180.663 60.344C180.316 60.1435 179.943 60.0432 179.542 60.0432C179.141 60.0432 178.767 60.1435 178.421 60.344C178.074 60.5354 177.792 60.8225 177.573 61.2053C177.363 61.579 177.258 62.0256 177.258 62.5451C177.258 63.0646 177.363 63.5203 177.573 63.9122C177.792 64.3041 178.074 64.6049 178.421 64.8145C178.776 65.015 179.15 65.1153 179.542 65.1153C179.943 65.1153 180.316 65.015 180.663 64.8145C181.009 64.614 181.287 64.3224 181.497 63.9396C181.715 63.5476 181.825 63.0919 181.825 62.5724ZM187.002 59.9065C187.23 59.5237 187.531 59.2275 187.905 59.0179C188.288 58.7991 188.739 58.6898 189.258 58.6898V60.303H188.862C188.251 60.303 187.786 60.4579 187.467 60.7678C187.157 61.0777 187.002 61.6154 187.002 62.381V66.3457H185.444V58.8128H187.002V59.9065ZM197.595 62.3947C197.595 62.6772 197.577 62.9324 197.54 63.1603H191.785C191.83 63.7618 192.053 64.2449 192.454 64.6094C192.855 64.974 193.348 65.1563 193.931 65.1563C194.769 65.1563 195.362 64.8054 195.708 64.1036H197.39C197.162 64.7963 196.747 65.3659 196.146 65.8125C195.553 66.25 194.815 66.4687 193.931 66.4687C193.211 66.4687 192.564 66.3092 191.99 65.9902C191.425 65.6621 190.978 65.2064 190.65 64.6231C190.331 64.0307 190.171 63.3471 190.171 62.5724C190.171 61.7977 190.326 61.1187 190.636 60.5354C190.955 59.943 191.397 59.4873 191.962 59.1683C192.536 58.8493 193.193 58.6898 193.931 58.6898C194.642 58.6898 195.275 58.8447 195.831 59.1546C196.387 59.4645 196.82 59.902 197.13 60.467C197.44 61.023 197.595 61.6656 197.595 62.3947ZM195.968 61.9025C195.959 61.3283 195.754 60.8681 195.353 60.5217C194.952 60.1754 194.455 60.0022 193.863 60.0022C193.325 60.0022 192.865 60.1754 192.482 60.5217C192.099 60.859 191.871 61.3192 191.798 61.9025H195.968Z" fill="#9D9D9D"/>
<path d="M61.7067 60.7313C67.245 60.7313 71.7347 56.2416 71.7347 50.7033C71.7347 45.165 67.245 40.6753 61.7067 40.6753C56.1684 40.6753 51.6787 45.165 51.6787 50.7033C51.6787 56.2416 56.1684 60.7313 61.7067 60.7313Z" stroke="#4200FF" stroke-width="3.47443" stroke-linecap="round" stroke-linejoin="round"/>
<path d="M77.4646 66.4617L68.8691 57.8662" stroke="#4200FF" stroke-width="3.47443" stroke-linecap="round" stroke-linejoin="round"/>
<g filter="url(#filter1_bd_524_26377)">
<path d="M130 156.743C130 140.869 142.869 128 158.743 128H410.915C426.79 128 439.658 140.869 439.658 156.743V190.843C439.658 206.717 426.79 219.586 410.915 219.586H158.743C142.869 219.586 130 206.717 130 190.843V156.743Z" fill="white"/>
</g>
<path d="M221.048 157.822C221.672 157.933 222.201 158.262 222.635 158.807C223.069 159.353 223.286 159.971 223.286 160.661C223.286 161.251 223.13 161.785 222.818 162.264C222.518 162.732 222.078 163.105 221.499 163.383C220.92 163.65 220.247 163.784 219.479 163.784H214.836V152.177H219.261C220.052 152.177 220.731 152.311 221.299 152.578C221.867 152.845 222.295 153.207 222.585 153.664C222.874 154.109 223.019 154.61 223.019 155.167C223.019 155.835 222.841 156.391 222.484 156.837C222.128 157.282 221.649 157.61 221.048 157.822ZM216.74 157.054H219.094C219.718 157.054 220.202 156.915 220.547 156.636C220.904 156.347 221.082 155.935 221.082 155.4C221.082 154.877 220.904 154.471 220.547 154.181C220.202 153.881 219.718 153.73 219.094 153.73H216.74V157.054ZM219.312 162.231C219.957 162.231 220.464 162.075 220.831 161.763C221.199 161.451 221.382 161.017 221.382 160.46C221.382 159.893 221.187 159.442 220.798 159.108C220.408 158.774 219.89 158.607 219.245 158.607H216.74V162.231H219.312ZM229.346 163.934C228.478 163.934 227.693 163.739 226.991 163.349C226.29 162.949 225.739 162.392 225.338 161.68C224.937 160.956 224.737 160.121 224.737 159.175C224.737 158.239 224.943 157.41 225.355 156.686C225.767 155.963 226.329 155.406 227.042 155.016C227.754 154.627 228.55 154.432 229.43 154.432C230.309 154.432 231.105 154.627 231.818 155.016C232.53 155.406 233.092 155.963 233.504 156.686C233.916 157.41 234.122 158.239 234.122 159.175C234.122 160.11 233.911 160.939 233.488 161.663C233.065 162.386 232.486 162.949 231.751 163.349C231.027 163.739 230.226 163.934 229.346 163.934ZM229.346 162.281C229.836 162.281 230.292 162.164 230.715 161.93C231.15 161.696 231.5 161.346 231.768 160.878C232.035 160.41 232.168 159.843 232.168 159.175C232.168 158.507 232.04 157.944 231.784 157.488C231.528 157.02 231.189 156.67 230.766 156.436C230.343 156.202 229.886 156.085 229.396 156.085C228.906 156.085 228.45 156.202 228.027 156.436C227.615 156.67 227.286 157.02 227.042 157.488C226.797 157.944 226.674 158.507 226.674 159.175C226.674 160.165 226.925 160.934 227.426 161.479C227.938 162.014 228.578 162.281 229.346 162.281ZM239.995 163.934C239.127 163.934 238.342 163.739 237.641 163.349C236.939 162.949 236.388 162.392 235.988 161.68C235.587 160.956 235.386 160.121 235.386 159.175C235.386 158.239 235.592 157.41 236.004 156.686C236.416 155.963 236.978 155.406 237.691 155.016C238.403 154.627 239.199 154.432 240.079 154.432C240.958 154.432 241.755 154.627 242.467 155.016C243.18 155.406 243.742 155.963 244.154 156.686C244.566 157.41 244.772 158.239 244.772 159.175C244.772 160.11 244.56 160.939 244.137 161.663C243.714 162.386 243.135 162.949 242.4 163.349C241.677 163.739 240.875 163.934 239.995 163.934ZM239.995 162.281C240.485 162.281 240.942 162.164 241.365 161.93C241.799 161.696 242.15 161.346 242.417 160.878C242.684 160.41 242.818 159.843 242.818 159.175C242.818 158.507 242.69 157.944 242.434 157.488C242.178 157.02 241.838 156.67 241.415 156.436C240.992 156.202 240.535 156.085 240.046 156.085C239.556 156.085 239.099 156.202 238.676 156.436C238.264 156.67 237.936 157.02 237.691 157.488C237.446 157.944 237.324 158.507 237.324 159.175C237.324 160.165 237.574 160.934 238.075 161.479C238.587 162.014 239.227 162.281 239.995 162.281ZM250.294 159.191L254.536 163.784H251.964L248.557 159.826V163.784H246.654V151.426H248.557V158.607L251.897 154.582H254.536L250.294 159.191ZM259.604 159.141C259.604 158.217 259.793 157.399 260.172 156.686C260.561 155.974 261.085 155.423 261.741 155.033C262.409 154.632 263.144 154.432 263.946 154.432C264.669 154.432 265.298 154.577 265.833 154.866C266.378 155.144 266.813 155.495 267.135 155.918V154.582H269.056V163.784H267.135V162.414C266.813 162.849 266.373 163.21 265.816 163.5C265.259 163.789 264.625 163.934 263.912 163.934C263.122 163.934 262.398 163.734 261.741 163.333C261.085 162.921 260.561 162.353 260.172 161.629C259.793 160.895 259.604 160.065 259.604 159.141ZM267.135 159.175C267.135 158.54 267.002 157.989 266.735 157.521C266.479 157.054 266.139 156.697 265.716 156.452C265.293 156.208 264.836 156.085 264.347 156.085C263.857 156.085 263.4 156.208 262.977 156.452C262.554 156.686 262.209 157.037 261.942 157.505C261.686 157.961 261.558 158.507 261.558 159.141C261.558 159.776 261.686 160.332 261.942 160.811C262.209 161.29 262.554 161.657 262.977 161.913C263.411 162.158 263.868 162.281 264.347 162.281C264.836 162.281 265.293 162.158 265.716 161.913C266.139 161.668 266.479 161.312 266.735 160.845C267.002 160.366 267.135 159.809 267.135 159.175ZM276.199 154.432C276.923 154.432 277.568 154.582 278.136 154.883C278.715 155.183 279.166 155.629 279.489 156.219C279.812 156.809 279.973 157.521 279.973 158.356V163.784H278.086V158.64C278.086 157.816 277.88 157.187 277.468 156.753C277.056 156.308 276.494 156.085 275.781 156.085C275.069 156.085 274.501 156.308 274.078 156.753C273.666 157.187 273.46 157.816 273.46 158.64V163.784H271.556V154.582H273.46V155.634C273.772 155.256 274.167 154.961 274.646 154.749C275.136 154.538 275.653 154.432 276.199 154.432ZM286.105 159.141C286.105 158.217 286.294 157.399 286.673 156.686C287.062 155.974 287.586 155.423 288.242 155.033C288.91 154.632 289.645 154.432 290.447 154.432C291.171 154.432 291.8 154.577 292.334 154.866C292.879 155.144 293.314 155.495 293.637 155.918V154.582H295.557V163.784H293.637V162.414C293.314 162.849 292.874 163.21 292.317 163.5C291.761 163.789 291.126 163.934 290.413 163.934C289.623 163.934 288.899 163.734 288.242 163.333C287.586 162.921 287.062 162.353 286.673 161.629C286.294 160.895 286.105 160.065 286.105 159.141ZM293.637 159.175C293.637 158.54 293.503 157.989 293.236 157.521C292.98 157.054 292.64 156.697 292.217 156.452C291.794 156.208 291.338 156.085 290.848 156.085C290.358 156.085 289.901 156.208 289.478 156.452C289.055 156.686 288.71 157.037 288.443 157.505C288.187 157.961 288.059 158.507 288.059 159.141C288.059 159.776 288.187 160.332 288.443 160.811C288.71 161.29 289.055 161.657 289.478 161.913C289.912 162.158 290.369 162.281 290.848 162.281C291.338 162.281 291.794 162.158 292.217 161.913C292.64 161.668 292.98 161.312 293.236 160.845C293.503 160.366 293.637 159.809 293.637 159.175ZM299.961 155.935C300.284 155.512 300.724 155.155 301.281 154.866C301.837 154.577 302.466 154.432 303.168 154.432C303.969 154.432 304.698 154.632 305.355 155.033C306.023 155.423 306.547 155.974 306.925 156.686C307.304 157.399 307.493 158.217 307.493 159.141C307.493 160.065 307.304 160.895 306.925 161.629C306.547 162.353 306.023 162.921 305.355 163.333C304.698 163.734 303.969 163.934 303.168 163.934C302.466 163.934 301.843 163.795 301.297 163.516C300.752 163.227 300.306 162.871 299.961 162.448V168.159H298.058V154.582H299.961V155.935ZM305.556 159.141C305.556 158.507 305.422 157.961 305.155 157.505C304.899 157.037 304.554 156.686 304.12 156.452C303.696 156.208 303.24 156.085 302.75 156.085C302.271 156.085 301.815 156.208 301.381 156.452C300.958 156.697 300.613 157.054 300.345 157.521C300.089 157.989 299.961 158.54 299.961 159.175C299.961 159.809 300.089 160.366 300.345 160.845C300.613 161.312 300.958 161.668 301.381 161.913C301.815 162.158 302.271 162.281 302.75 162.281C303.24 162.281 303.696 162.158 304.12 161.913C304.554 161.657 304.899 161.29 305.155 160.811C305.422 160.332 305.556 159.776 305.556 159.141ZM311.279 155.935C311.602 155.512 312.042 155.155 312.599 154.866C313.155 154.577 313.784 154.432 314.486 154.432C315.287 154.432 316.016 154.632 316.673 155.033C317.341 155.423 317.865 155.974 318.243 156.686C318.622 157.399 318.811 158.217 318.811 159.141C318.811 160.065 318.622 160.895 318.243 161.629C317.865 162.353 317.341 162.921 316.673 163.333C316.016 163.734 315.287 163.934 314.486 163.934C313.784 163.934 313.161 163.795 312.615 163.516C312.07 163.227 311.624 162.871 311.279 162.448V168.159H309.376V154.582H311.279V155.935ZM316.874 159.141C316.874 158.507 316.74 157.961 316.473 157.505C316.217 157.037 315.872 156.686 315.438 156.452C315.014 156.208 314.558 156.085 314.068 156.085C313.589 156.085 313.133 156.208 312.699 156.452C312.276 156.697 311.931 157.054 311.663 157.521C311.407 157.989 311.279 158.54 311.279 159.175C311.279 159.809 311.407 160.366 311.663 160.845C311.931 161.312 312.276 161.668 312.699 161.913C313.133 162.158 313.589 162.281 314.068 162.281C314.558 162.281 315.014 162.158 315.438 161.913C315.872 161.657 316.217 161.29 316.473 160.811C316.74 160.332 316.874 159.776 316.874 159.141ZM324.685 163.934C323.816 163.934 323.031 163.739 322.33 163.349C321.629 162.949 321.078 162.392 320.677 161.68C320.276 160.956 320.076 160.121 320.076 159.175C320.076 158.239 320.282 157.41 320.694 156.686C321.105 155.963 321.668 155.406 322.38 155.016C323.093 154.627 323.889 154.432 324.768 154.432C325.648 154.432 326.444 154.627 327.156 155.016C327.869 155.406 328.431 155.963 328.843 156.686C329.255 157.41 329.461 158.239 329.461 159.175C329.461 160.11 329.249 160.939 328.826 161.663C328.403 162.386 327.824 162.949 327.09 163.349C326.366 163.739 325.564 163.934 324.685 163.934ZM324.685 162.281C325.175 162.281 325.631 162.164 326.054 161.93C326.488 161.696 326.839 161.346 327.106 160.878C327.373 160.41 327.507 159.843 327.507 159.175C327.507 158.507 327.379 157.944 327.123 157.488C326.867 157.02 326.527 156.67 326.104 156.436C325.681 156.202 325.225 156.085 324.735 156.085C324.245 156.085 323.789 156.202 323.365 156.436C322.954 156.67 322.625 157.02 322.38 157.488C322.135 157.944 322.013 158.507 322.013 159.175C322.013 160.165 322.263 160.934 322.764 161.479C323.276 162.014 323.917 162.281 324.685 162.281ZM332.311 153.363C331.966 153.363 331.677 153.246 331.443 153.012C331.209 152.779 331.092 152.489 331.092 152.144C331.092 151.799 331.209 151.509 331.443 151.276C331.677 151.042 331.966 150.925 332.311 150.925C332.645 150.925 332.929 151.042 333.163 151.276C333.397 151.509 333.514 151.799 333.514 152.144C333.514 152.489 333.397 152.779 333.163 153.012C332.929 153.246 332.645 153.363 332.311 153.363ZM333.247 154.582V163.784H331.343V154.582H333.247ZM340.389 154.432C341.112 154.432 341.758 154.582 342.326 154.883C342.905 155.183 343.356 155.629 343.679 156.219C344.001 156.809 344.163 157.521 344.163 158.356V163.784H342.276V158.64C342.276 157.816 342.07 157.187 341.658 156.753C341.246 156.308 340.684 156.085 339.971 156.085C339.259 156.085 338.691 156.308 338.268 156.753C337.856 157.187 337.65 157.816 337.65 158.64V163.784H335.746V154.582H337.65V155.634C337.962 155.256 338.357 154.961 338.836 154.749C339.325 154.538 339.843 154.432 340.389 154.432ZM348.812 156.135V161.229C348.812 161.574 348.89 161.824 349.046 161.98C349.213 162.125 349.491 162.197 349.881 162.197H351.05V163.784H349.547C348.69 163.784 348.033 163.583 347.576 163.183C347.12 162.782 346.892 162.13 346.892 161.229V156.135H345.806V154.582H346.892V152.294H348.812V154.582H351.05V156.135H348.812ZM363.943 154.432C364.667 154.432 365.313 154.582 365.881 154.883C366.459 155.183 366.91 155.629 367.233 156.219C367.567 156.809 367.734 157.521 367.734 158.356V163.784H365.847V158.64C365.847 157.816 365.641 157.187 365.229 156.753C364.817 156.308 364.255 156.085 363.543 156.085C362.83 156.085 362.262 156.308 361.839 156.753C361.427 157.187 361.221 157.816 361.221 158.64V163.784H359.334V158.64C359.334 157.816 359.128 157.187 358.716 156.753C358.304 156.308 357.742 156.085 357.03 156.085C356.317 156.085 355.749 156.308 355.326 156.753C354.914 157.187 354.708 157.816 354.708 158.64V163.784H352.805V154.582H354.708V155.634C355.02 155.256 355.415 154.961 355.894 154.749C356.373 154.538 356.885 154.432 357.43 154.432C358.165 154.432 358.822 154.588 359.401 154.899C359.98 155.211 360.425 155.662 360.737 156.252C361.015 155.695 361.45 155.256 362.04 154.933C362.63 154.599 363.264 154.432 363.943 154.432ZM378.59 158.957C378.59 159.303 378.568 159.614 378.523 159.893H371.493C371.548 160.627 371.821 161.217 372.311 161.663C372.801 162.108 373.402 162.331 374.115 162.331C375.139 162.331 375.862 161.902 376.286 161.045H378.34C378.061 161.891 377.555 162.587 376.82 163.132C376.096 163.667 375.195 163.934 374.115 163.934C373.235 163.934 372.445 163.739 371.743 163.349C371.053 162.949 370.507 162.392 370.107 161.68C369.717 160.956 369.522 160.121 369.522 159.175C369.522 158.228 369.711 157.399 370.09 156.686C370.48 155.963 371.02 155.406 371.71 155.016C372.411 154.627 373.213 154.432 374.115 154.432C374.983 154.432 375.757 154.621 376.436 155C377.115 155.378 377.644 155.913 378.022 156.603C378.401 157.282 378.59 158.067 378.59 158.957ZM376.603 158.356C376.592 157.655 376.341 157.093 375.851 156.67C375.362 156.247 374.755 156.035 374.031 156.035C373.374 156.035 372.812 156.247 372.344 156.67C371.877 157.082 371.598 157.644 371.509 158.356H376.603ZM385.106 154.432C385.83 154.432 386.476 154.582 387.043 154.883C387.622 155.183 388.073 155.629 388.396 156.219C388.719 156.809 388.88 157.521 388.88 158.356V163.784H386.993V158.64C386.993 157.816 386.787 157.187 386.375 156.753C385.963 156.308 385.401 156.085 384.689 156.085C383.976 156.085 383.408 156.308 382.985 156.753C382.573 157.187 382.367 157.816 382.367 158.64V163.784H380.464V154.582H382.367V155.634C382.679 155.256 383.074 154.961 383.553 154.749C384.043 154.538 384.561 154.432 385.106 154.432ZM393.53 156.135V161.229C393.53 161.574 393.608 161.824 393.764 161.98C393.931 162.125 394.209 162.197 394.599 162.197H395.768V163.784H394.265C393.407 163.784 392.75 163.583 392.294 163.183C391.838 162.782 391.609 162.13 391.609 161.229V156.135H390.524V154.582H391.609V152.294H393.53V154.582H395.768V156.135H393.53Z" fill="#404040"/>
<path d="M218.921 188.444C218.041 188.444 217.228 188.239 216.484 187.831C215.749 187.413 215.163 186.837 214.727 186.102C214.301 185.357 214.087 184.522 214.087 183.596C214.087 182.67 214.301 181.84 214.727 181.104C215.163 180.369 215.749 179.797 216.484 179.389C217.228 178.971 218.041 178.762 218.921 178.762C219.811 178.762 220.623 178.971 221.359 179.389C222.103 179.797 222.689 180.369 223.115 181.104C223.542 181.84 223.755 182.67 223.755 183.596C223.755 184.522 223.542 185.357 223.115 186.102C222.689 186.837 222.103 187.413 221.359 187.831C220.623 188.239 219.811 188.444 218.921 188.444ZM218.921 187.096C219.548 187.096 220.106 186.955 220.596 186.674C221.086 186.383 221.468 185.975 221.74 185.448C222.021 184.912 222.162 184.295 222.162 183.596C222.162 182.897 222.021 182.284 221.74 181.758C221.468 181.231 221.086 180.827 220.596 180.546C220.106 180.265 219.548 180.124 218.921 180.124C218.295 180.124 217.737 180.265 217.246 180.546C216.756 180.827 216.37 181.231 216.089 181.758C215.817 182.284 215.68 182.897 215.68 183.596C215.68 184.295 215.817 184.912 216.089 185.448C216.37 185.975 216.756 186.383 217.246 186.674C217.737 186.955 218.295 187.096 218.921 187.096ZM229.068 180.723C229.658 180.723 230.185 180.846 230.648 181.091C231.12 181.336 231.487 181.699 231.751 182.18C232.014 182.661 232.146 183.242 232.146 183.923V188.348H230.607V184.154C230.607 183.483 230.439 182.97 230.103 182.616C229.767 182.253 229.309 182.071 228.728 182.071C228.147 182.071 227.684 182.253 227.339 182.616C227.003 182.97 226.835 183.483 226.835 184.154V188.348H225.283V180.846H226.835V181.703C227.089 181.395 227.411 181.154 227.802 180.982C228.201 180.809 228.623 180.723 229.068 180.723ZM235.678 178.272V188.348H234.126V178.272H235.678ZM238.506 179.852C238.224 179.852 237.988 179.756 237.798 179.566C237.607 179.375 237.512 179.139 237.512 178.858C237.512 178.576 237.607 178.34 237.798 178.149C237.988 177.959 238.224 177.864 238.506 177.864C238.778 177.864 239.01 177.959 239.2 178.149C239.391 178.34 239.486 178.576 239.486 178.858C239.486 179.139 239.391 179.375 239.2 179.566C239.01 179.756 238.778 179.852 238.506 179.852ZM239.268 180.846V188.348H237.716V180.846H239.268ZM245.092 180.723C245.682 180.723 246.208 180.846 246.671 181.091C247.143 181.336 247.511 181.699 247.774 182.18C248.037 182.661 248.169 183.242 248.169 183.923V188.348H246.63V184.154C246.63 183.483 246.462 182.97 246.127 182.616C245.791 182.253 245.332 182.071 244.751 182.071C244.17 182.071 243.707 182.253 243.362 182.616C243.027 182.97 242.859 183.483 242.859 184.154V188.348H241.306V180.846H242.859V181.703C243.113 181.395 243.435 181.154 243.825 180.982C244.225 180.809 244.647 180.723 245.092 180.723ZM257.026 184.413C257.026 184.695 257.007 184.949 256.971 185.176H251.239C251.284 185.775 251.506 186.256 251.906 186.619C252.305 186.982 252.795 187.164 253.376 187.164C254.212 187.164 254.802 186.814 255.147 186.115H256.821C256.594 186.805 256.181 187.373 255.582 187.817C254.992 188.253 254.257 188.471 253.376 188.471C252.659 188.471 252.015 188.312 251.443 187.994C250.88 187.668 250.435 187.214 250.108 186.633C249.791 186.043 249.632 185.362 249.632 184.59C249.632 183.819 249.786 183.142 250.095 182.561C250.412 181.971 250.853 181.517 251.416 181.2C251.987 180.882 252.641 180.723 253.376 180.723C254.084 180.723 254.715 180.877 255.269 181.186C255.823 181.495 256.254 181.93 256.563 182.493C256.871 183.047 257.026 183.687 257.026 184.413ZM255.405 183.923C255.396 183.351 255.192 182.893 254.792 182.548C254.393 182.203 253.898 182.03 253.308 182.03C252.773 182.03 252.314 182.203 251.933 182.548C251.552 182.884 251.325 183.342 251.252 183.923H255.405ZM261.573 184.563C261.573 183.809 261.727 183.142 262.036 182.561C262.354 181.98 262.78 181.531 263.316 181.213C263.861 180.886 264.46 180.723 265.113 180.723C265.703 180.723 266.216 180.841 266.652 181.077C267.097 181.304 267.451 181.59 267.714 181.935V180.846H269.28V188.348H267.714V187.232C267.451 187.586 267.092 187.881 266.638 188.117C266.185 188.353 265.667 188.471 265.086 188.471C264.442 188.471 263.852 188.308 263.316 187.981C262.78 187.645 262.354 187.182 262.036 186.592C261.727 185.993 261.573 185.316 261.573 184.563ZM267.714 184.59C267.714 184.073 267.605 183.623 267.387 183.242C267.179 182.861 266.902 182.57 266.557 182.371C266.212 182.171 265.84 182.071 265.44 182.071C265.041 182.071 264.669 182.171 264.324 182.371C263.979 182.561 263.697 182.847 263.479 183.229C263.271 183.601 263.166 184.046 263.166 184.563C263.166 185.08 263.271 185.534 263.479 185.925C263.697 186.315 263.979 186.615 264.324 186.823C264.678 187.023 265.05 187.123 265.44 187.123C265.84 187.123 266.212 187.023 266.557 186.823C266.902 186.624 267.179 186.333 267.387 185.952C267.605 185.561 267.714 185.108 267.714 184.59ZM272.871 181.949C273.135 181.604 273.493 181.313 273.947 181.077C274.401 180.841 274.914 180.723 275.486 180.723C276.139 180.723 276.734 180.886 277.269 181.213C277.814 181.531 278.241 181.98 278.549 182.561C278.858 183.142 279.012 183.809 279.012 184.563C279.012 185.316 278.858 185.993 278.549 186.592C278.241 187.182 277.814 187.645 277.269 187.981C276.734 188.308 276.139 188.471 275.486 188.471C274.914 188.471 274.405 188.357 273.961 188.131C273.516 187.894 273.153 187.604 272.871 187.259V191.916H271.319V180.846H272.871V181.949ZM277.433 184.563C277.433 184.046 277.324 183.601 277.106 183.229C276.897 182.847 276.616 182.561 276.262 182.371C275.917 182.171 275.545 182.071 275.145 182.071C274.755 182.071 274.383 182.171 274.029 182.371C273.684 182.57 273.402 182.861 273.184 183.242C272.976 183.623 272.871 184.073 272.871 184.59C272.871 185.108 272.976 185.561 273.184 185.952C273.402 186.333 273.684 186.624 274.029 186.823C274.383 187.023 274.755 187.123 275.145 187.123C275.545 187.123 275.917 187.023 276.262 186.823C276.616 186.615 276.897 186.315 277.106 185.925C277.324 185.534 277.433 185.08 277.433 184.563ZM282.1 181.949C282.363 181.604 282.722 181.313 283.175 181.077C283.629 180.841 284.142 180.723 284.714 180.723C285.368 180.723 285.962 180.886 286.498 181.213C287.043 181.531 287.469 181.98 287.778 182.561C288.087 183.142 288.241 183.809 288.241 184.563C288.241 185.316 288.087 185.993 287.778 186.592C287.469 187.182 287.043 187.645 286.498 187.981C285.962 188.308 285.368 188.471 284.714 188.471C284.142 188.471 283.634 188.357 283.189 188.131C282.744 187.894 282.381 187.604 282.1 187.259V191.916H280.547V180.846H282.1V181.949ZM286.661 184.563C286.661 184.046 286.552 183.601 286.335 183.229C286.126 182.847 285.844 182.561 285.49 182.371C285.145 182.171 284.773 182.071 284.374 182.071C283.983 182.071 283.611 182.171 283.257 182.371C282.912 182.57 282.631 182.861 282.413 183.242C282.204 183.623 282.1 184.073 282.1 184.59C282.1 185.108 282.204 185.561 282.413 185.952C282.631 186.333 282.912 186.624 283.257 186.823C283.611 187.023 283.983 187.123 284.374 187.123C284.773 187.123 285.145 187.023 285.49 186.823C285.844 186.615 286.126 186.315 286.335 185.925C286.552 185.534 286.661 185.08 286.661 184.563ZM293.03 188.471C292.322 188.471 291.682 188.312 291.11 187.994C290.539 187.668 290.089 187.214 289.762 186.633C289.436 186.043 289.272 185.362 289.272 184.59C289.272 183.828 289.44 183.151 289.776 182.561C290.112 181.971 290.57 181.517 291.151 181.2C291.732 180.882 292.381 180.723 293.098 180.723C293.816 180.723 294.465 180.882 295.046 181.2C295.627 181.517 296.085 181.971 296.421 182.561C296.757 183.151 296.925 183.828 296.925 184.59C296.925 185.353 296.752 186.029 296.407 186.619C296.062 187.209 295.59 187.668 294.991 187.994C294.401 188.312 293.748 188.471 293.03 188.471ZM293.03 187.123C293.43 187.123 293.802 187.028 294.147 186.837C294.501 186.646 294.787 186.36 295.005 185.979C295.223 185.598 295.332 185.135 295.332 184.59C295.332 184.046 295.227 183.587 295.018 183.215C294.81 182.834 294.533 182.548 294.188 182.357C293.843 182.166 293.471 182.071 293.071 182.071C292.672 182.071 292.3 182.166 291.955 182.357C291.619 182.548 291.351 182.834 291.151 183.215C290.952 183.587 290.852 184.046 290.852 184.59C290.852 185.398 291.056 186.024 291.464 186.469C291.882 186.905 292.404 187.123 293.03 187.123ZM299.249 179.852C298.968 179.852 298.732 179.756 298.541 179.566C298.35 179.375 298.255 179.139 298.255 178.858C298.255 178.576 298.35 178.34 298.541 178.149C298.732 177.959 298.968 177.864 299.249 177.864C299.521 177.864 299.753 177.959 299.944 178.149C300.134 178.34 300.229 178.576 300.229 178.858C300.229 179.139 300.134 179.375 299.944 179.566C299.753 179.756 299.521 179.852 299.249 179.852ZM300.012 180.846V188.348H298.459V180.846H300.012ZM305.835 180.723C306.425 180.723 306.952 180.846 307.415 181.091C307.887 181.336 308.254 181.699 308.518 182.18C308.781 182.661 308.912 183.242 308.912 183.923V188.348H307.374V184.154C307.374 183.483 307.206 182.97 306.87 182.616C306.534 182.253 306.076 182.071 305.495 182.071C304.914 182.071 304.451 182.253 304.106 182.616C303.77 182.97 303.602 183.483 303.602 184.154V188.348H302.05V180.846H303.602V181.703C303.856 181.395 304.178 181.154 304.569 180.982C304.968 180.809 305.39 180.723 305.835 180.723ZM312.704 182.112V186.265C312.704 186.546 312.767 186.751 312.894 186.878C313.03 186.996 313.257 187.055 313.575 187.055H314.528V188.348H313.303C312.604 188.348 312.068 188.185 311.696 187.858C311.324 187.531 311.138 187 311.138 186.265V182.112H310.253V180.846H311.138V178.98H312.704V180.846H314.528V182.112H312.704ZM325.041 180.723C325.631 180.723 326.158 180.846 326.621 181.091C327.093 181.336 327.461 181.699 327.724 182.18C327.996 182.661 328.132 183.242 328.132 183.923V188.348H326.594V184.154C326.594 183.483 326.426 182.97 326.09 182.616C325.754 182.253 325.295 182.071 324.714 182.071C324.133 182.071 323.671 182.253 323.326 182.616C322.99 182.97 322.822 183.483 322.822 184.154V188.348H321.283V184.154C321.283 183.483 321.115 182.97 320.779 182.616C320.443 182.253 319.985 182.071 319.404 182.071C318.823 182.071 318.36 182.253 318.015 182.616C317.679 182.97 317.511 183.483 317.511 184.154V188.348H315.959V180.846H317.511V181.703C317.765 181.395 318.088 181.154 318.478 180.982C318.868 180.809 319.286 180.723 319.731 180.723C320.33 180.723 320.865 180.85 321.338 181.104C321.81 181.358 322.173 181.726 322.427 182.207C322.654 181.753 323.008 181.395 323.489 181.132C323.97 180.859 324.488 180.723 325.041 180.723ZM336.984 184.413C336.984 184.695 336.966 184.949 336.93 185.176H331.197C331.242 185.775 331.465 186.256 331.864 186.619C332.264 186.982 332.754 187.164 333.335 187.164C334.17 187.164 334.76 186.814 335.105 186.115H336.78C336.553 186.805 336.14 187.373 335.541 187.817C334.951 188.253 334.215 188.471 333.335 188.471C332.618 188.471 331.973 188.312 331.401 187.994C330.838 187.668 330.394 187.214 330.067 186.633C329.749 186.043 329.59 185.362 329.59 184.59C329.59 183.819 329.744 183.142 330.053 182.561C330.371 181.971 330.811 181.517 331.374 181.2C331.946 180.882 332.599 180.723 333.335 180.723C334.043 180.723 334.674 180.877 335.227 181.186C335.781 181.495 336.212 181.93 336.521 182.493C336.83 183.047 336.984 183.687 336.984 184.413ZM335.364 183.923C335.355 183.351 335.15 182.893 334.751 182.548C334.351 182.203 333.857 182.03 333.267 182.03C332.731 182.03 332.273 182.203 331.891 182.548C331.51 182.884 331.283 183.342 331.211 183.923H335.364ZM342.297 180.723C342.887 180.723 343.414 180.846 343.877 181.091C344.349 181.336 344.716 181.699 344.98 182.18C345.243 182.661 345.374 183.242 345.374 183.923V188.348H343.836V184.154C343.836 183.483 343.668 182.97 343.332 182.616C342.996 182.253 342.538 182.071 341.957 182.071C341.376 182.071 340.913 182.253 340.568 182.616C340.232 182.97 340.064 183.483 340.064 184.154V188.348H338.512V180.846H340.064V181.703C340.318 181.395 340.64 181.154 341.031 180.982C341.43 180.809 341.852 180.723 342.297 180.723ZM349.166 182.112V186.265C349.166 186.546 349.229 186.751 349.356 186.878C349.492 186.996 349.719 187.055 350.037 187.055H350.99V188.348H349.765C349.066 188.348 348.53 188.185 348.158 187.858C347.786 187.531 347.6 187 347.6 186.265V182.112H346.715V180.846H347.6V178.98H349.166V180.846H350.99V182.112H349.166Z" fill="#9D9D9D"/>
<path d="M170.267 155.691H166.584C165.607 155.691 164.67 156.08 163.979 156.77C163.288 157.461 162.9 158.398 162.9 159.375V181.478C162.9 182.455 163.288 183.392 163.979 184.083C164.67 184.773 165.607 185.161 166.584 185.161H185.002C185.979 185.161 186.916 184.773 187.607 184.083C188.298 183.392 188.686 182.455 188.686 181.478V159.375C188.686 158.398 188.298 157.461 187.607 156.77C186.916 156.08 185.979 155.691 185.002 155.691H181.319" stroke="#4200FF" stroke-width="3.47443" stroke-linecap="round" stroke-linejoin="round"/>
<path d="M177.635 152.008H173.951C171.917 152.008 170.268 153.657 170.268 155.692C170.268 157.726 171.917 159.375 173.951 159.375H177.635C179.67 159.375 181.319 157.726 181.319 155.692C181.319 153.657 179.67 152.008 177.635 152.008Z" stroke="#4200FF" stroke-width="3.47443" stroke-linecap="round" stroke-linejoin="round"/>
<path d="M177.635 175.952H181.319M170.268 168.585H170.286H170.268ZM177.635 168.585H181.319H177.635ZM170.268 175.952H170.286H170.268Z" stroke="#4200FF" stroke-width="3.47443" stroke-linecap="round" stroke-linejoin="round"/>
<g filter="url(#filter2_bd_524_26377)">
<rect x="65" y="253" width="210" height="79.0433" rx="28.743" fill="white"/>
</g>
<path d="M98.5319 292.983C98.5319 292.005 98.7571 291.128 99.2075 290.352C99.6676 289.576 100.286 288.972 101.062 288.541C101.848 288.1 102.706 287.88 103.635 287.88C104.699 287.88 105.643 288.143 106.467 288.67C107.301 289.188 107.905 289.926 108.279 290.884H106.309C106.05 290.357 105.691 289.964 105.231 289.705C104.771 289.447 104.239 289.317 103.635 289.317C102.974 289.317 102.385 289.466 101.867 289.763C101.35 290.06 100.942 290.486 100.645 291.042C100.358 291.598 100.214 292.245 100.214 292.983C100.214 293.721 100.358 294.368 100.645 294.924C100.942 295.479 101.35 295.911 101.867 296.217C102.385 296.515 102.974 296.663 103.635 296.663C104.239 296.663 104.771 296.534 105.231 296.275C105.691 296.016 106.05 295.623 106.309 295.096H108.279C107.905 296.055 107.301 296.792 106.467 297.31C105.643 297.827 104.699 298.086 103.635 298.086C102.696 298.086 101.838 297.871 101.062 297.439C100.286 296.999 99.6676 296.39 99.2075 295.614C98.7571 294.837 98.5319 293.96 98.5319 292.983ZM113.633 298.129C112.885 298.129 112.209 297.962 111.606 297.626C111.002 297.281 110.527 296.802 110.182 296.189C109.837 295.566 109.665 294.847 109.665 294.032C109.665 293.227 109.842 292.513 110.197 291.89C110.551 291.267 111.035 290.788 111.649 290.453C112.262 290.117 112.947 289.95 113.704 289.95C114.462 289.95 115.147 290.117 115.76 290.453C116.373 290.788 116.857 291.267 117.212 291.89C117.567 292.513 117.744 293.227 117.744 294.032C117.744 294.837 117.562 295.551 117.198 296.174C116.833 296.797 116.335 297.281 115.703 297.626C115.08 297.962 114.39 298.129 113.633 298.129ZM113.633 296.706C114.054 296.706 114.447 296.606 114.811 296.404C115.185 296.203 115.487 295.901 115.717 295.499C115.947 295.096 116.062 294.607 116.062 294.032C116.062 293.457 115.952 292.973 115.731 292.58C115.511 292.178 115.219 291.876 114.854 291.675C114.49 291.473 114.097 291.373 113.676 291.373C113.254 291.373 112.861 291.473 112.497 291.675C112.142 291.876 111.86 292.178 111.649 292.58C111.438 292.973 111.332 293.457 111.332 294.032C111.332 294.885 111.548 295.547 111.979 296.016C112.42 296.476 112.971 296.706 113.633 296.706ZM123.36 289.95C123.983 289.95 124.539 290.079 125.028 290.338C125.526 290.597 125.914 290.98 126.192 291.488C126.47 291.996 126.609 292.609 126.609 293.328V298H124.985V293.572C124.985 292.863 124.808 292.322 124.453 291.948C124.098 291.565 123.614 291.373 123.001 291.373C122.388 291.373 121.899 291.565 121.535 291.948C121.18 292.322 121.003 292.863 121.003 293.572V298H119.364V290.079H121.003V290.985C121.271 290.659 121.611 290.405 122.023 290.223C122.445 290.041 122.891 289.95 123.36 289.95ZM130.612 291.416V295.801C130.612 296.098 130.679 296.313 130.813 296.447C130.957 296.572 131.196 296.634 131.532 296.634H132.538V298H131.244C130.506 298 129.941 297.827 129.548 297.482C129.155 297.137 128.958 296.577 128.958 295.801V291.416H128.024V290.079H128.958V288.11H130.612V290.079H132.538V291.416H130.612ZM133.502 294.004C133.502 293.208 133.665 292.504 133.991 291.89C134.326 291.277 134.777 290.803 135.342 290.467C135.917 290.122 136.55 289.95 137.24 289.95C137.863 289.95 138.404 290.074 138.864 290.323C139.334 290.563 139.708 290.865 139.986 291.229V290.079H141.639V298H139.986V296.821C139.708 297.195 139.329 297.506 138.85 297.756C138.371 298.005 137.824 298.129 137.211 298.129C136.531 298.129 135.908 297.957 135.342 297.612C134.777 297.257 134.326 296.768 133.991 296.146C133.665 295.513 133.502 294.799 133.502 294.004ZM139.986 294.032C139.986 293.486 139.871 293.012 139.641 292.609C139.42 292.207 139.128 291.9 138.764 291.689C138.399 291.478 138.006 291.373 137.585 291.373C137.163 291.373 136.77 291.478 136.406 291.689C136.042 291.89 135.745 292.192 135.515 292.595C135.294 292.988 135.184 293.457 135.184 294.004C135.184 294.55 135.294 295.029 135.515 295.441C135.745 295.853 136.042 296.17 136.406 296.39C136.78 296.601 137.173 296.706 137.585 296.706C138.006 296.706 138.399 296.601 138.764 296.39C139.128 296.179 139.42 295.872 139.641 295.47C139.871 295.058 139.986 294.579 139.986 294.032ZM143.245 294.032C143.245 293.218 143.408 292.504 143.734 291.89C144.069 291.267 144.529 290.788 145.114 290.453C145.698 290.117 146.369 289.95 147.126 289.95C148.085 289.95 148.875 290.18 149.498 290.64C150.131 291.09 150.557 291.737 150.778 292.58H149.01C148.866 292.187 148.636 291.881 148.32 291.66C148.003 291.44 147.606 291.33 147.126 291.33C146.455 291.33 145.919 291.569 145.516 292.049C145.123 292.518 144.927 293.179 144.927 294.032C144.927 294.885 145.123 295.551 145.516 296.031C145.919 296.51 146.455 296.749 147.126 296.749C148.075 296.749 148.703 296.332 149.01 295.499H150.778C150.548 296.304 150.116 296.946 149.484 297.425C148.851 297.895 148.066 298.129 147.126 298.129C146.369 298.129 145.698 297.962 145.114 297.626C144.529 297.281 144.069 296.802 143.734 296.189C143.408 295.566 143.245 294.847 143.245 294.032ZM154.323 291.416V295.801C154.323 296.098 154.39 296.313 154.524 296.447C154.668 296.572 154.907 296.634 155.243 296.634H156.249V298H154.955C154.217 298 153.652 297.827 153.259 297.482C152.866 297.137 152.67 296.577 152.67 295.801V291.416H151.735V290.079H152.67V288.11H154.323V290.079H156.249V291.416H154.323ZM165.49 289.95C166.113 289.95 166.669 290.079 167.158 290.338C167.656 290.597 168.044 290.98 168.322 291.488C168.6 291.996 168.739 292.609 168.739 293.328V298H167.115V293.572C167.115 292.863 166.937 292.322 166.583 291.948C166.228 291.565 165.744 291.373 165.131 291.373C164.518 291.373 164.029 291.565 163.665 291.948C163.31 292.322 163.133 292.863 163.133 293.572V298H161.494V290.079H163.133V290.985C163.401 290.659 163.741 290.405 164.153 290.223C164.575 290.041 165.021 289.95 165.49 289.95ZM174.265 298.129C173.518 298.129 172.842 297.962 172.238 297.626C171.635 297.281 171.16 296.802 170.815 296.189C170.47 295.566 170.298 294.847 170.298 294.032C170.298 293.227 170.475 292.513 170.83 291.89C171.184 291.267 171.668 290.788 172.282 290.453C172.895 290.117 173.58 289.95 174.337 289.95C175.094 289.95 175.78 290.117 176.393 290.453C177.006 290.788 177.49 291.267 177.845 291.89C178.2 292.513 178.377 293.227 178.377 294.032C178.377 294.837 178.195 295.551 177.831 296.174C177.466 296.797 176.968 297.281 176.335 297.626C175.713 297.962 175.023 298.129 174.265 298.129ZM174.265 296.706C174.687 296.706 175.08 296.606 175.444 296.404C175.818 296.203 176.12 295.901 176.35 295.499C176.58 295.096 176.695 294.607 176.695 294.032C176.695 293.457 176.585 292.973 176.364 292.58C176.144 292.178 175.851 291.876 175.487 291.675C175.123 291.473 174.73 291.373 174.309 291.373C173.887 291.373 173.494 291.473 173.13 291.675C172.775 291.876 172.492 292.178 172.282 292.58C172.071 292.973 171.965 293.457 171.965 294.032C171.965 294.885 172.181 295.547 172.612 296.016C173.053 296.476 173.604 296.706 174.265 296.706Z" fill="black"/>
<path d="M226.786 281.85H232.196L234.901 288.613L231.52 290.642C232.969 293.579 235.346 295.956 238.283 297.405L240.312 294.023L247.075 296.728V302.139C247.075 302.856 246.79 303.544 246.283 304.052C245.775 304.559 245.087 304.844 244.37 304.844C239.094 304.523 234.117 302.283 230.379 298.545C226.642 294.807 224.401 289.831 224.081 284.555C224.081 283.837 224.366 283.149 224.873 282.642C225.38 282.135 226.068 281.85 226.786 281.85Z" stroke="#4200FF" stroke-width="3" stroke-linecap="round" stroke-linejoin="round"/>
<defs>
<filter id="filter0_bd_524_26377" x="-11.743" y="-14.743" width="367.144" height="138.402" filterUnits="userSpaceOnUse" color-interpolation-filters="sRGB">
<feFlood flood-opacity="0" result="BackgroundImageFix"/>
<feGaussianBlur in="BackgroundImageFix" stdDeviation="14.3715"/>
<feComposite in2="SourceAlpha" operator="in" result="effect1_backgroundBlur_524_26377"/>
<feColorMatrix in="SourceAlpha" type="matrix" values="0 0 0 0 0 0 0 0 0 0 0 0 0 0 0 0 0 0 127 0" result="hardAlpha"/>
<feMorphology radius="0.718575" operator="erode" in="SourceAlpha" result="effect2_dropShadow_524_26377"/>
<feOffset dy="2.8743"/>
<feGaussianBlur stdDeviation="8.6229"/>
<feComposite in2="hardAlpha" operator="out"/>
<feColorMatrix type="matrix" values="0 0 0 0 0 0 0 0 0 0 0 0 0 0 0 0 0 0 0.2 0"/>
<feBlend mode="normal" in2="effect1_backgroundBlur_524_26377" result="effect2_dropShadow_524_26377"/>
<feBlend mode="normal" in="SourceGraphic" in2="effect2_dropShadow_524_26377" result="shape"/>
</filter>
<filter id="filter1_bd_524_26377" x="101.257" y="99.257" width="367.144" height="149.072" filterUnits="userSpaceOnUse" color-interpolation-filters="sRGB">
<feFlood flood-opacity="0" result="BackgroundImageFix"/>
<feGaussianBlur in="BackgroundImageFix" stdDeviation="14.3715"/>
<feComposite in2="SourceAlpha" operator="in" result="effect1_backgroundBlur_524_26377"/>
<feColorMatrix in="SourceAlpha" type="matrix" values="0 0 0 0 0 0 0 0 0 0 0 0 0 0 0 0 0 0 127 0" result="hardAlpha"/>
<feOffset dy="2.8743"/>
<feGaussianBlur stdDeviation="8.6229"/>
<feComposite in2="hardAlpha" operator="out"/>
<feColorMatrix type="matrix" values="0 0 0 0 0 0 0 0 0 0 0 0 0 0 0 0 0 0 0.2 0"/>
<feBlend mode="normal" in2="effect1_backgroundBlur_524_26377" result="effect2_dropShadow_524_26377"/>
<feBlend mode="normal" in="SourceGraphic" in2="effect2_dropShadow_524_26377" result="shape"/>
</filter>
<filter id="filter2_bd_524_26377" x="36.257" y="224.257" width="267.486" height="136.529" filterUnits="userSpaceOnUse" color-interpolation-filters="sRGB">
<feFlood flood-opacity="0" result="BackgroundImageFix"/>
<feGaussianBlur in="BackgroundImageFix" stdDeviation="14.3715"/>
<feComposite in2="SourceAlpha" operator="in" result="effect1_backgroundBlur_524_26377"/>
<feColorMatrix in="SourceAlpha" type="matrix" values="0 0 0 0 0 0 0 0 0 0 0 0 0 0 0 0 0 0 127 0" result="hardAlpha"/>
<feMorphology radius="0.718575" operator="erode" in="SourceAlpha" result="effect2_dropShadow_524_26377"/>
<feOffset dy="2.8743"/>
<feGaussianBlur stdDeviation="8.6229"/>
<feComposite in2="hardAlpha" operator="out"/>
<feColorMatrix type="matrix" values="0 0 0 0 0 0 0 0 0 0 0 0 0 0 0 0 0 0 0.2 0"/>
<feBlend mode="normal" in2="effect1_backgroundBlur_524_26377" result="effect2_dropShadow_524_26377"/>
<feBlend mode="normal" in="SourceGraphic" in2="effect2_dropShadow_524_26377" result="shape"/>
</filter>
</defs>
</svg>
